<?xml version="1.0" encoding="UTF-8" standalone="no"?>
<!-- Created with Inkscape (http://www.inkscape.org/) -->

<svg
   xmlns:dc="http://purl.org/dc/elements/1.1/"
   xmlns:cc="http://creativecommons.org/ns#"
   xmlns:rdf="http://www.w3.org/1999/02/22-rdf-syntax-ns#"
   xmlns:svg="http://www.w3.org/2000/svg"
   xmlns="http://www.w3.org/2000/svg"
   xmlns:sodipodi="http://sodipodi.sourceforge.net/DTD/sodipodi-0.dtd"
   xmlns:inkscape="http://www.inkscape.org/namespaces/inkscape"
   version="1.1"
   width="128"
   height="128"
   id="svg2"
   inkscape:version="0.48.4 r9939"
   sodipodi:docname="dash-icon-donate-inkscape.svg">
  <sodipodi:namedview
     pagecolor="#ffffff"
     bordercolor="#666666"
     borderopacity="1"
     objecttolerance="10"
     gridtolerance="10"
     guidetolerance="10"
     inkscape:pageopacity="0"
     inkscape:pageshadow="2"
     inkscape:window-width="1920"
     inkscape:window-height="1060"
     id="namedview3111"
     showgrid="false"
     inkscape:zoom="3.9456558"
     inkscape:cx="-40.357575"
     inkscape:cy="64.128343"
     inkscape:window-x="1358"
     inkscape:window-y="-3"
     inkscape:window-maximized="1"
     inkscape:current-layer="layer2" />
  <metadata
     id="metadata8">
    <rdf:RDF>
      <cc:Work
         rdf:about="">
        <dc:format>image/svg+xml</dc:format>
        <dc:type
           rdf:resource="http://purl.org/dc/dcmitype/StillImage" />
        <dc:title></dc:title>
      </cc:Work>
    </rdf:RDF>
  </metadata>
  <defs
     id="defs6" />
  <g
     transform="translate(0,-128)"
     id="layer1"
     style="display:none">
    <rect
       width="162.45778"
       height="137.53227"
       x="-20.682873"
       y="-4.7592978"
       transform="translate(0,128)"
       id="rect5256"
       style="fill:#d4ff2a;fill-opacity:1;stroke:none" />
  </g>
  <g
     inkscape:groupmode="layer"
     id="layer3"
     inkscape:label="white bg"
     style="display:inline">
    <g
       id="g4982"
       transform="matrix(0.07657948,0,0,0.07657928,58.501004,87.660024)">
      <path
         inkscape:connector-curvature="0"
         id="path4970"
         d="m -250.20467,-177.92488 c 3.91235,-3.5815 7.13853,-9.8962 8.43401,-11.32393 4.6296,-5.10226 18.20339,-32.21069 23.67094,-45.02038 4.58989,-10.75347 9.4369,-28.35745 11.73399,-39.47193 1.94961,-9.43315 5.59644,-17.77876 5.56025,-36.98811 -0.0587,-31.17398 -4.85098,-53.61554 -19.61729,-86.34856 -5.1448,-11.40467 -21.2752,-33.01727 -27.5122,-38.87663 -2.16009,-2.0293 -13.8561,-18.84498 -13.8561,-19.67125 0,-0.97892 161.00467,-0.36442 438.14326,0.21633 374.89299,0.78559 424.10972,0.75737 433.57501,2.83767 56.15372,12.34153 105.57808,63.39782 113.15753,119.512 2.34348,17.3498 -1.0694,55.5988 -4.98344,69.4346 -13.37781,47.28946 -47.37288,87.65975 -97.44789,91.64243 l -18.93092,4.89988 -425.48647,1.63197 -439.13837,-0.85021 z"
         style="fill:#ffffff;fill-opacity:1;stroke:none"
         sodipodi:nodetypes="ssssssssssssscccs" />
      <g
         transform="translate(9.7627124,-402.44068)"
         id="g4950">
        <path
           inkscape:connector-curvature="0"
           id="path4956"
           d="m -422.33472,292.82924 c 0.6875,-0.27741 1.8125,-0.27741 2.5,0 0.6875,0.27741 0.125,0.50439 -1.25,0.50439 -1.375,0 -1.9375,-0.22698 -1.25,-0.50439 z m 32,0 c 0.6875,-0.27741 1.8125,-0.27741 2.5,0 0.6875,0.27741 0.125,0.50439 -1.25,0.50439 -1.375,0 -1.9375,-0.22698 -1.25,-0.50439 z m -40.9375,-1.02083 c 0.72187,-0.28887 1.58437,-0.25335 1.91667,0.0789 0.33229,0.33229 -0.25834,0.56864 -1.3125,0.52522 -1.16495,-0.048 -1.4019,-0.28494 -0.60417,-0.60412 z m 51,0 c 0.72187,-0.28887 1.58437,-0.25335 1.91667,0.0789 0.33229,0.33229 -0.25834,0.56864 -1.3125,0.52522 -1.16495,-0.048 -1.4019,-0.28494 -0.60417,-0.60412 z m -153.94005,-45.06689 c -1.24388,-1.58606 -1.20851,-1.62143 0.37755,-0.37756 0.9625,0.75485 1.75,1.54235 1.75,1.75 0,0.82304 -0.82119,0.29331 -2.12755,-1.37244 z m 267.04662,-8.27043 5.41906,-4.94127 426.58094,-0.32024 c 396.89163,-0.29796 427.15463,-0.4386 434.82403,-2.02078 55.7784,-11.50695 96.9913,-52.5359 107.938,-107.45626 2.7415,-13.75425 2.4579,-49.25912 -0.503,-62.97469 -6.6309,-30.71529 -23.169,-58.03057 -46.5328,-76.856214 -19.9778,-16.097387 -43.7493,-26.267565 -68.6191,-29.357348 -5.8113,-0.721989 -141.2012,-1.052768 -430.90495,-1.052768 l -422.43123,0 1.90499,2.211075 c 1.04775,1.216091 -1.34743,-0.921409 -5.32261,-4.75 l -7.2276,-6.961075 59.7276,-0.259184 c 32.85018,-0.142551 228.0276,-0.133691 433.7276,0.01969 l 374,0.278874 9.699,2.240431 c 29.7707,6.876927 54.5372,20.652224 74.3506,41.354409 19.5366,20.413071 31.5131,43.044891 37.666,71.177371 1.9665,8.99156 2.2283,13.06646 2.2283,34.68841 0,27.172229 -1.1906,35.620519 -7.5658,53.688409 -12.3942,35.12571 -38.1541,64.3588 -71.4686,81.10469 -10.0601,5.05681 -22.8509,9.57166 -35.2105,12.42854 l -9.699,2.24188 -434,0.22866 -434,0.22866 z m -279.94796,-3.72957 -6.47111,-6.75 6.75,6.47111 c 6.26969,6.01065 7.20713,7.02889 6.47111,7.02889 -0.15339,0 -3.19089,-3.0375 -6.75,-6.75 z m 289.02889,-5.75 c 1.86578,-1.925 3.61733,-3.5 3.89233,-3.5 0.275,0 -1.02655,1.575 -2.89233,3.5 -1.86578,1.925 -3.61733,3.5 -3.89233,3.5 -0.275,0 1.02655,-1.575 2.89233,-3.5 z m 6,-6.87756 c 0,-0.20765 0.7875,-0.99515 1.75,-1.75 1.58606,-1.24387 1.62143,-1.2085 0.37756,0.37756 -1.30637,1.66575 -2.12756,2.19548 -2.12756,1.37244 z m 4,-5 c 0,-0.20765 0.7875,-0.99515 1.75,-1.75 1.58606,-1.24387 1.62143,-1.2085 0.37756,0.37756 -1.30637,1.66575 -2.12756,2.19548 -2.12756,1.37244 z m 3,-4 c 0,-0.20765 0.7875,-0.99515 1.75,-1.75 1.58606,-1.24387 1.62143,-1.2085 0.37756,0.37756 -1.30637,1.66575 -2.12756,2.19548 -2.12756,1.37244 z m -67,-56.12244 c 1.86578,-1.925 3.61733,-3.5 3.89233,-3.5 0.275,0 -1.02655,1.575 -2.89233,3.5 -1.86578,1.925 -3.61733,3.5 -3.89233,3.5 -0.275,0 1.02655,-1.575 2.89233,-3.5 z m 103.07895,-25.08333 c 0.048,-1.16495 0.28494,-1.4019 0.60416,-0.60417 0.28887,0.72187 0.25335,1.58437 -0.0789,1.91667 -0.33229,0.33229 -0.56864,-0.25834 -0.52526,-1.3125 z m 1,-6 c 0.048,-1.16495 0.28494,-1.4019 0.60416,-0.60417 0.28887,0.72187 0.25335,1.58437 -0.0789,1.91667 -0.33229,0.33229 -0.56864,-0.25834 -0.52526,-1.3125 z m 1.07894,-6.41667 c 0,-1.375 0.22698,-1.9375 0.50439,-1.25 0.27741,0.6875 0.27741,1.8125 0,2.5 -0.27741,0.6875 -0.50439,0.125 -0.50439,-1.25 z m -397.07894,-0.58333 c 0.048,-1.16495 0.28494,-1.4019 0.60416,-0.60417 0.28887,0.72187 0.25335,1.58437 -0.0789,1.91667 -0.33229,0.33229 -0.56864,-0.25834 -0.52526,-1.3125 z m 398.15305,-8.41667 c 0,-1.925 0.2058,-2.7125 0.45733,-1.75 0.25152,0.9625 0.25152,2.5375 0,3.5 -0.25153,0.9625 -0.45733,0.175 -0.45733,-1.75 z m -399.07411,-1 c 0,-1.375 0.22698,-1.9375 0.50439,-1.25 0.27741,0.6875 0.27741,1.8125 0,2.5 -0.27741,0.6875 -0.50439,0.125 -0.50439,-1.25 z m 0,-32 c 0,-1.375 0.22698,-1.9375 0.50439,-1.25 0.27741,0.6875 0.27741,1.8125 0,2.5 -0.27741,0.6875 -0.50439,0.125 -0.50439,-1.25 z m 399.07411,-1 c 0,-1.925 0.2058,-2.7125 0.45733,-1.75 0.25152,0.9625 0.25152,2.5375 0,3.5 -0.25153,0.9625 -0.45733,0.175 -0.45733,-1.75 z m -296.982,0.25082 c 13.6125,-0.15717 35.8875,-0.15717 49.5,0 13.6125,0.15716 2.475,0.28576 -24.75,0.28576 -27.225,0 -38.3625,-0.1286 -24.75,-0.28576 z m -101.17105,-8.83415 c 0.048,-1.16495 0.28494,-1.4019 0.60416,-0.60417 0.28887,0.72187 0.25335,1.58437 -0.0789,1.91667 -0.33229,0.33229 -0.56864,-0.25834 -0.52526,-1.3125 z m 397.07894,-0.41667 c 0,-1.375 0.22698,-1.9375 0.50439,-1.25 0.27741,0.6875 0.27741,1.8125 0,2.5 -0.27741,0.6875 -0.50439,0.125 -0.50439,-1.25 z m -1.07894,-6.58333 c 0.048,-1.16495 0.28494,-1.4019 0.60416,-0.60417 0.28887,0.72187 0.25335,1.58437 -0.0789,1.91667 -0.33229,0.33229 -0.56864,-0.25834 -0.52526,-1.3125 z m -61.884,-15.91667 c 0.0204,-1.65 0.2445,-2.20394 0.49804,-1.23097 0.25354,0.97297 0.23687,2.32297 -0.0371,3 -0.27393,0.67703 -0.48137,-0.11903 -0.46094,-1.76903 z m -25.38245,-29.18308 c 0.72187,-0.28887 1.58438,-0.25335 1.91667,0.0789 0.33229,0.3323 -0.25834,0.56864 -1.3125,0.52522 -1.16495,-0.048 -1.4019,-0.28494 -0.60417,-0.60412 z m 42.05994,-52.06692 c -1.24387,-1.586056 -1.2085,-1.621426 0.37756,-0.377555 1.66575,1.306369 2.19548,2.127555 1.37244,2.127555 -0.20765,0 -0.99515,-0.7875 -1.75,-1.75 z m -294.37244,-11.25 c 3.26557,-3.3 6.16239,-6 6.43739,-6 0.275,0 -2.17182,2.7 -5.43739,6 -3.26557,3.3 -6.16239,6 -6.43739,6 -0.275,0 2.17182,-2.7 5.43739,-6 z m 11.5,-10.377555 c 0,-0.207656 0.7875,-0.995156 1.75,-1.75 1.58606,-1.243871 1.62143,-1.208501 0.37756,0.377555 -1.30637,1.665748 -2.12756,2.195479 -2.12756,1.372445 z m 258.87244,-2.372445 c -1.24387,-1.586056 -1.2085,-1.621426 0.37756,-0.377555 1.66575,1.306369 2.19548,2.127555 1.37244,2.127555 -0.20765,0 -0.99515,-0.7875 -1.75,-1.75 z m -154.05994,-44.93311 c 0.72187,-0.28887 1.58437,-0.25335 1.91667,0.0789 0.33229,0.33229 -0.25834,0.56864 -1.3125,0.52522 -1.16495,-0.048 -1.4019,-0.28494 -0.60417,-0.60412 z m 51,0 c 0.72187,-0.28887 1.58437,-0.25335 1.91667,0.0789 0.33229,0.33229 -0.25834,0.56864 -1.3125,0.52522 -1.16495,-0.048 -1.4019,-0.28494 -0.60417,-0.60412 z m -42.0625,-0.97917 c 0.6875,-0.27741 1.8125,-0.27741 2.5,0 0.6875,0.27741 0.125,0.50439 -1.25,0.50439 -1.375,0 -1.9375,-0.22698 -1.25,-0.50439 z m 32,0 c 0.6875,-0.27741 1.8125,-0.27741 2.5,0 0.6875,0.27741 0.125,0.50439 -1.25,0.50439 -1.375,0 -1.9375,-0.22698 -1.25,-0.50439 z"
           style="fill:#b0b0b0"
           sodipodi:nodetypes="ssssssssccccccccssssccssssssscsscsscsssssssccccscssssssssssssssssssssssssscscccsccsssscsccsssssssssssssssssssscsccsssscscccsccccccsssssssssssssssssccccccccssssssss" />
        <path
           inkscape:connector-curvature="0"
           id="path4954"
           d="m -426.08472,292.44438 c -38.09722,-4.69551 -72.13191,-18.3799 -101.5,-40.81028 -8.48553,-6.48097 -25.62785,-23.2904 -32.77911,-32.14258 -19.53024,-24.17546 -34.7876,-56.49745 -40.59565,-86 -8.85779,-44.99393 -2.86519,-89.35257 17.62982,-130.5 18.40964,-36.960692 51.01468,-69.358203 88.84146,-88.276004 55.25951,-27.636196 120.6019,-28.082236 176.25791,-1.203173 59.3665,28.671043 99.23191,82.447797 110.81086,149.479177 2.40714,13.93511 2.40496,47.10334 -0.004,60.95705 -3.92729,22.58544 -9.82437,40.89018 -19.18247,59.54295 -28.72606,57.25749 -82.81593,96.69772 -147.47882,107.53583 -11.31187,1.89597 -41.45049,2.71727 -52,1.41703 z"
           style="fill:#1b74bb"
           sodipodi:nodetypes="ssssssssssss" />
      </g>
      <path
         inkscape:connector-curvature="0"
         id="path4978"
         d="m -547.67865,-190.97849 6.19867,-235.46347 297.53446,-2.22383 -6.52293,244.0278 z"
         style="fill:#ffffff;fill-opacity:1;stroke:none"
         sodipodi:nodetypes="ccccc" />
    </g>
  </g>
  <g
     inkscape:groupmode="layer"
     id="layer2"
     inkscape:label="donate"
     style="display:inline">
    <path
       inkscape:connector-curvature="0"
       id="path3302"
       d="m 63.272932,70.531716 c 0.05526,-0.02211 0.121284,-0.01939 0.14672,0.006 0.02544,0.02544 -0.01977,0.04352 -0.10047,0.0402 -0.08918,-0.0037 -0.107315,-0.02182 -0.04624,-0.04625 z m 1.148252,0 c 0.05526,-0.02211 0.121283,-0.01939 0.14672,0.006 0.02544,0.02544 -0.01978,0.04352 -0.100471,0.0402 -0.08918,-0.0037 -0.107316,-0.02182 -0.04625,-0.04625 z M 53.321415,70.378617 c 0.05526,-0.02211 0.121285,-0.01939 0.146722,0.006 0.02544,0.02544 -0.01978,0.04352 -0.100471,0.0402 -0.08918,-0.0037 -0.107316,-0.02182 -0.04625,-0.04625 z m 6.374056,-3.666759 c 0.0037,-0.08918 0.02182,-0.107315 0.04625,-0.04625 0.02211,0.05527 0.01939,0.121283 -0.006,0.146721 -0.02544,0.02544 -0.04352,-0.01978 -0.0402,-0.100471 z m 27.328397,-1.913749 c 0.0037,-0.08918 0.02182,-0.107315 0.04624,-0.04625 0.02211,0.05526 0.01939,0.121283 -0.006,0.146721 -0.02544,0.02544 -0.04352,-0.01978 -0.0402,-0.10047 z M 41.814973,56.867336 c -0.126307,-0.256874 -0.470529,-0.832409 -0.764937,-1.278967 -0.294407,-0.446556 -0.563086,-0.85498 -0.597066,-0.907608 -0.04939,-0.0765 6.74437,-0.09569 33.87856,-0.09569 l 33.94034,0 0.68327,0.452945 c 0.75384,0.499736 1.55992,1.209487 2.12545,1.87145 l 0.36856,0.431404 -34.702262,-0.0033 -34.702264,-0.0033 -0.229651,-0.467043 z"
       style="fill:#f9f9f9" />
    <path
       inkscape:connector-curvature="0"
       id="path3300"
       d="m 86.947318,64.26226 c 0.0037,-0.08918 0.02182,-0.107316 0.04624,-0.04625 0.02211,0.05527 0.01939,0.121284 -0.006,0.146721 -0.02544,0.02544 -0.04352,-0.01977 -0.0402,-0.100471 z M 63.210734,62.89074 c 0.09888,-0.105256 0.197012,-0.191375 0.218063,-0.191375 0.02104,0 -0.04264,0.08612 -0.141512,0.191375 -0.09888,0.105257 -0.197012,0.191376 -0.218063,0.191376 -0.02104,0 0.04264,-0.08612 0.141512,-0.191376 z m 23.571387,-0.286992 c -0.02278,-0.164562 -0.01109,-0.258344 0.02742,-0.219839 0.03693,0.03693 0.05482,0.166083 0.03973,0.286993 -0.02524,0.202369 -0.03057,0.197032 -0.06716,-0.06716 z M 53.853373,62.109375 c 0.09522,-0.01831 0.233012,-0.01761 0.306201,0.0015 0.07319,0.01916 -0.0048,0.03415 -0.17313,0.03329 -0.168411,-8.49e-4 -0.228292,-0.01652 -0.133071,-0.03484 z m 10.947148,-0.0013 c 0.137587,-0.01704 0.344272,-0.01668 0.459301,7.81e-4 0.115027,0.01747 0.0024,0.03141 -0.25016,0.03098 -0.252615,-4.59e-4 -0.346729,-0.01472 -0.209141,-0.03175 z M 43.041547,59.924422 c -0.01744,-0.05263 -0.135376,-0.411677 -0.262092,-0.797888 -0.126716,-0.386209 -0.335278,-0.933521 -0.463473,-1.216249 -0.128196,-0.282728 -0.233083,-0.526508 -0.233083,-0.541737 0,-0.01523 15.604409,-0.02769 34.676464,-0.02769 l 34.676477,0 0.26554,0.363612 c 0.27242,0.373008 1.05609,1.835077 1.14888,2.143399 l 0.0518,0.172236 -3.40358,0 -3.40358,0 0.0604,-0.267925 0.0604,-0.267924 -2.93912,0 c -2.84632,0 -2.93911,0.0047 -2.93911,0.146839 0,0.346393 -0.0689,0.38901 -0.62911,0.38901 l -0.536185,0 0.0503,-0.267925 0.0503,-0.267924 -4.01383,0 -4.013828,0 -0.05026,0.267924 -0.05026,0.267925 -1.254762,0 -1.254755,0 -0.02398,-0.248787 -0.02399,-0.248787 -1.388479,-0.02083 -1.38848,-0.02083 -0.159079,0.269618 -0.15908,0.269619 -2.178915,0 -2.178918,0 0.0712,-0.248283 c 0.03916,-0.136554 0.0712,-0.257121 0.0712,-0.267924 0,-0.0108 -0.495805,-0.01965 -1.101787,-0.01965 -1.171709,0 -1.194717,0.0074 -1.194717,0.389011 0,0.141319 -0.08206,0.146838 -2.182917,0.146838 l -2.182916,0 -0.127766,-0.267924 -0.127764,-0.267925 -1.163829,0 -1.16383,0 -0.05026,0.267925 -0.05026,0.267924 -2.049791,0 -2.049791,0 -0.417629,-0.226197 c -0.63308,-0.34289 -1.2061,-0.462752 -2.212263,-0.462752 -0.987688,0 -1.527296,0.109115 -2.285959,0.462251 L 62.428045,60.0201 59.623421,60.0185 c -2.659761,-0.0015 -2.822414,-0.0098 -3.149098,-0.158208 -0.724591,-0.329244 -1.143925,-0.373639 -3.540442,-0.37483 -2.19436,-10e-4 -2.277367,0.0043 -2.277367,0.145707 0,0.410375 0.210779,0.38901 -3.838099,0.38901 -2.928195,0 -3.752084,-0.02087 -3.776868,-0.09569 z"
       style="fill:#f5f5f5" />
    <path
       inkscape:connector-curvature="0"
       id="path3298"
       d="m 69.39394,64.632251 c 0.04404,-0.444407 0.08121,-0.476786 0.08787,-0.07655 0.0034,0.199986 -0.02148,0.363613 -0.05514,0.363613 -0.03365,0 -0.04838,-0.129178 -0.03272,-0.287063 z m -10.701062,-0.195073 0.03687,-0.398189 0.02545,0.335737 c 0.014,0.184657 -0.0025,0.363842 -0.03687,0.39819 -0.03428,0.03435 -0.04573,-0.116735 -0.02545,-0.335738 z m 28.10134,-1.476267 c 0.0037,-0.08918 0.02182,-0.107315 0.04625,-0.04625 0.02211,0.05527 0.01939,0.121284 -0.006,0.146721 -0.02544,0.02544 -0.04352,-0.01978 -0.0402,-0.10047 z M 66.339525,62.641952 c -0.09522,-0.121412 -0.09251,-0.12412 0.0289,-0.0289 0.127513,0.100002 0.168064,0.162865 0.10506,0.162865 -0.0159,0 -0.07618,-0.06029 -0.133962,-0.133963 z m -23.0206,-1.416172 c -0.09034,-0.473653 -0.18552,-0.938694 -0.211497,-1.033424 l -0.04723,-0.172238 3.768813,0 c 3.672726,0 3.767836,0.0038 3.730553,0.146299 -0.02104,0.08047 -0.119022,0.545506 -0.217734,1.033424 l -0.179476,0.887125 -3.339581,0 -3.339579,0 -0.164266,-0.861186 z M 58.367,61.685079 c -0.254347,-0.551343 -0.732599,-1.132696 -1.170342,-1.422644 l -0.365832,-0.242317 2.788066,0.0041 c 2.631798,0.0039 2.77734,0.01119 2.596691,0.132011 -0.396457,0.265159 -1.271706,1.168697 -1.492728,1.540973 l -0.229649,0.386811 -0.970403,0.0015 -0.970404,0.0015 L 58.367,61.685126 z m 10.809565,0.193428 C 68.970232,61.32612 68.739692,60.95758 68.319474,60.508368 l -0.456736,-0.48825 2.035441,0 2.035443,0 -0.04949,0.248788 c -0.02721,0.136832 -0.122725,0.593262 -0.212245,1.014286 l -0.162762,0.7655 -1.126582,0.0212 -1.126584,0.0212 -0.07941,-0.212565 z m 5.95399,-0.805828 -0.48347,-1.014286 2.101465,-0.02037 c 1.155805,-0.0112 2.118211,-0.0037 2.138676,0.01685 0.0303,0.0303 -0.161996,1.071696 -0.343417,1.859863 -0.0394,0.171133 -0.04891,0.172237 -1.484716,0.172237 l -1.445069,0 -0.483469,-1.014287 z m 5.764875,0.918599 c 8.89e-4,-0.05262 0.08419,-0.457386 0.185111,-0.899461 0.100918,-0.442076 0.151865,-0.815256 0.113208,-0.829291 -0.03866,-0.01403 -0.07027,-0.07432 -0.07027,-0.133962 0,-0.09103 0.351476,-0.108446 2.188951,-0.108446 l 2.188953,0 -0.188869,0.325337 c -0.103878,0.178936 -0.367703,0.643977 -0.586276,1.033424 l -0.397407,0.708087 -1.717501,0 c -1.323831,0 -1.717132,-0.02193 -1.715887,-0.09569 z m 8.034166,0 c -0.0011,-0.05262 -0.06421,-0.517668 -0.140266,-1.033424 l -0.13828,-0.937736 1.251697,0 1.2517,0 -0.03967,0.172238 c -0.22266,0.966502 -0.247073,1.123807 -0.178009,1.146829 0.04646,0.01548 0.05498,0.165939 0.0219,0.386569 l -0.05416,0.361212 -0.986455,0 c -0.737079,0 -0.986964,-0.02419 -0.988446,-0.09569 z m 9.953508,0.05286 c 0,-0.02356 0.0865,-0.426044 0.19222,-0.894413 0.139181,-0.616549 0.168171,-0.866458 0.105021,-0.905483 -0.201691,-0.124654 0.046,-0.224119 0.558245,-0.224119 0.49421,0 0.53701,0.01247 0.50201,0.146299 -0.0211,0.08047 -0.11902,0.545506 -0.21773,1.033424 l -0.17948,0.887125 -0.480155,0 c -0.264081,0 -0.480131,-0.01927 -0.480131,-0.04283 z m 6.995446,-0.244229 c 0.0269,-0.157885 0.11426,-0.573718 0.19409,-0.924075 0.11055,-0.485312 0.12152,-0.627958 0.0461,-0.598989 -0.0667,0.0256 -0.0864,-0.01008 -0.0606,-0.10935 0.0373,-0.142672 0.14695,-0.147372 3.43799,-0.147372 l 3.39944,0 0.082,0.210512 c 0.10467,0.268536 0.45002,1.612541 0.45002,1.751326 0,0.08757 -0.63097,0.10501 -3.79902,0.10501 l -3.79901,0 0.049,-0.287062 z"
       style="fill:#f1f1f1" />
    <path
       inkscape:connector-curvature="0"
       id="path3296"
       d="m 43.460802,62.240067 c 0,-0.150755 0.05103,-0.153101 3.32993,-0.153101 3.278896,0 3.329929,0.0023 3.329929,0.153101 0,0.150753 -0.05103,0.153099 -3.329929,0.153099 -3.278897,0 -3.32993,-0.0023 -3.32993,-0.153099 z m 9.166371,-0.0097 c 0.04134,-0.158102 0.06773,-0.16125 0.914375,-0.109113 0.47949,0.02952 1.016881,0.09938 1.194199,0.15523 0.298336,0.09397 0.230088,0.102112 -0.914374,0.109115 -1.225343,0.0074 -1.23638,0.006 -1.1942,-0.155232 z m 5.96047,0.04171 c -0.02556,-0.0666 -0.04646,-0.135492 -0.04646,-0.1531 0,-0.01761 0.431807,-0.03202 0.959569,-0.03202 0.935849,0 0.957544,0.0038 0.877634,0.153101 -0.07422,0.138667 -0.160283,0.153099 -0.913104,0.153099 -0.687301,0 -0.839211,-0.02096 -0.877633,-0.121086 z m 5.656517,0.0036 c 0.296309,-0.135677 1.234697,-0.135677 1.531003,0 0.208693,0.09556 0.138826,0.105155 -0.765501,0.105155 -0.904325,0 -0.974191,-0.0096 -0.765502,-0.105155 z m 5.0605,-0.0036 c -0.02556,-0.0666 -0.04646,-0.135492 -0.04646,-0.1531 0,-0.01761 0.49949,-0.03202 1.109977,-0.03202 1.058942,0 1.109976,0.007 1.109976,0.153101 0,0.145752 -0.05102,0.153099 -1.06351,0.153099 -0.899169,0 -1.070694,-0.01871 -1.109978,-0.121086 z m 6.383746,-0.03202 c -0.08061,-0.150609 -0.05821,-0.153101 1.375209,-0.153101 0.801429,0 1.457145,0.01441 1.457145,0.03202 0,0.01761 -0.02091,0.0865 -0.04646,0.1531 -0.03991,0.10398 -0.234186,0.121086 -1.37521,0.121086 -1.250399,0 -1.333574,-0.0091 -1.41068,-0.153099 z m 5.158943,0.03202 c 0.02556,-0.0666 0.04646,-0.135492 0.04646,-0.1531 0,-0.01761 0.775361,-0.03202 1.723026,-0.03202 1.703865,0 1.721964,0.0016 1.627415,0.153101 -0.09088,0.145515 -0.178517,0.153099 -1.769492,0.153099 -1.494909,0 -1.668911,-0.01295 -1.627414,-0.121086 z m 8.135263,0.07005 c -0.02807,-0.02807 -0.05102,-0.09696 -0.05102,-0.153099 0,-0.08279 0.433786,-0.102069 2.296504,-0.102069 2.245466,0 2.296503,0.0035 2.296503,0.153101 0,0.149619 -0.05104,0.153099 -2.245468,0.153099 -1.235014,0 -2.268438,-0.02297 -2.296506,-0.05103 z m 7.068127,-0.102068 c 0,-0.148935 0.05103,-0.153101 1.875478,-0.153101 1.824453,0 1.875483,0.0042 1.875483,0.153101 0,0.148933 -0.051,0.153099 -1.875483,0.153099 -1.824442,0 -1.875478,-0.0042 -1.875478,-0.153099 z m 6.254931,0 c 0.0395,-0.151319 0.10441,-0.153101 5.57207,-0.153101 5.46763,0 5.53249,0.0017 5.57205,0.153101 0.0397,0.15207 0.002,0.153099 -5.57205,0.153099 -5.57441,0 -5.61184,-10e-4 -5.57207,-0.153099 z"
       style="fill:#eef0f0" />
    <path
       inkscape:connector-curvature="0"
       id="path3294"
       d="m 43.525014,62.852326 -0.02594,-0.45944 3.304622,1.54e-4 3.304624,1.53e-4 -0.06296,0.248788 c -0.03462,0.136832 -0.08418,0.343518 -0.110112,0.459299 l -0.04716,0.210512 -3.168573,0 -3.168574,0 -0.02594,-0.459438 z m 8.916902,0.287201 c 0.02273,-0.09473 0.06476,-0.301415 0.09337,-0.459299 l 0.05202,-0.287062 1.264661,0 c 1.134299,0 1.290392,0.0159 1.514303,0.154288 0.224027,0.138455 0.648754,0.610434 0.648754,0.720928 0,0.02386 -0.813251,0.04338 -1.807227,0.04338 l -1.807227,0 0.04134,-0.172238 z m 6.294736,0.07655 c -0.01615,-0.05263 -0.04887,-0.259313 -0.07268,-0.459299 l -0.04331,-0.363612 0.846965,0 c 0.465832,0 0.834874,0.02583 0.820095,0.05741 -0.01478,0.03158 -0.09463,0.238262 -0.177446,0.459301 l -0.150578,0.401887 -0.596834,0 c -0.410771,0 -0.605994,-0.02983 -0.626207,-0.09569 z m 4.244432,0.03415 c 0,-0.0697 0.387466,-0.442446 0.718413,-0.691125 0.202449,-0.152124 0.311652,-0.16594 1.311581,-0.16594 l 1.090747,0 0.270515,0.299427 c 0.148782,0.164685 0.309017,0.37137 0.356076,0.4593 l 0.08556,0.159872 -1.916447,0 c -1.054046,0 -1.916446,-0.02769 -1.916446,-0.06153 z m 6.474902,-0.110703 c -0.01913,-0.09473 -0.05206,-0.301415 -0.0732,-0.459299 l -0.03842,-0.287062 1.037305,0 1.037305,0 -0.05312,0.354261 c -0.08863,0.591027 -0.04113,0.564338 -1.004417,0.564338 -0.841589,0 -0.871839,-0.0057 -0.905454,-0.172238 z m 6.53862,-0.287062 -0.231854,-0.459299 1.348918,0 c 1.11173,0 1.341832,0.01847 1.308614,0.105038 -0.02216,0.05776 -0.06421,0.264455 -0.09344,0.459299 l -0.05313,0.354262 -1.023633,0 -1.023632,0 -0.231856,-0.4593 z m 4.669558,0.340098 c 0,-0.06556 0.03853,-0.272246 0.08564,-0.4593 l 0.08564,-0.340097 1.63674,0 c 0.900208,0 1.636741,0.01774 1.636741,0.03944 0,0.02169 -0.10663,0.228374 -0.236958,0.459299 l -0.236957,0.419865 -1.485421,0 c -1.293583,0 -1.48542,-0.01539 -1.48542,-0.119202 z m 5.871814,-0.299683 c 0.112993,-0.230388 0.211135,-0.411236 0.218094,-0.401887 0.0069,0.0094 0.03308,0.197846 0.05805,0.418885 l 0.04539,0.401887 -0.263488,0 -0.263487,0 0.205441,-0.418885 z m 2.5487,0.314744 c 0,-0.05727 -0.02191,-0.263962 -0.04868,-0.459299 l -0.04868,-0.355159 2.239048,0 2.239054,0 -0.05312,0.354261 c -0.02922,0.194845 -0.07125,0.401529 -0.09343,0.4593 -0.05948,0.155021 -4.234188,0.155905 -4.234188,8.95e-4 z m 6.761161,-0.06811 c 0.02273,-0.09473 0.06476,-0.301415 0.09337,-0.4593 l 0.05202,-0.287062 1.899064,0 1.899057,0 -0.0629,0.248787 c -0.0346,0.136834 -0.0842,0.343518 -0.110114,0.4593 l -0.0471,0.210513 -1.882313,0 -1.882315,0 0.04134,-0.172238 z m 6.277111,0 c 0.0227,-0.09473 0.0648,-0.301415 0.0935,-0.4593 l 0.052,-0.287062 5.61792,0 5.61792,0 0,0.4593 0,0.4593 -5.71129,0 -5.71128,0 0.0413,-0.172238 z"
       style="fill:#eeeef0" />
    <path
       inkscape:connector-curvature="0"
       id="path3292"
       d="m 104.99062,64.922602 c 0.073,-0.319552 0.0853,-0.503428 0.0352,-0.520147 -0.0498,-0.0166 -0.054,-0.127413 -0.0117,-0.309487 0.0362,-0.155996 0.0668,-0.326688 0.0677,-0.379316 0.001,-0.07344 -0.35606,-0.09569 -1.53735,-0.09569 -1.3721,0 -1.53416,-0.01315 -1.49274,-0.121085 0.0256,-0.0666 0.0465,-0.135492 0.0465,-0.1531 0,-0.0176 2.56261,-0.03202 5.69469,-0.03202 l 5.69469,0 0.052,0.207187 c 0.0286,0.113954 0.0279,0.578436 -10e-4,1.032184 l -0.0534,0.824997 -4.30339,0.02037 -4.30339,0.02038 0.11276,-0.494286 z m -61.453269,-0.577413 0,-1.033424 3.185129,0 3.185129,0 -0.0408,0.172237 c -0.02245,0.09473 -0.120336,0.559771 -0.217536,1.033424 l -0.176728,0.861187 -2.967593,0 -2.967594,0 0,-1.033424 z m 8.617924,0.172237 c 0.09958,-0.473653 0.199903,-0.938693 0.222934,-1.033424 l 0.04187,-0.172237 1.825797,0 1.825797,0 0.09728,0.347478 c 0.103688,0.370332 0.06713,1.147883 -0.07106,1.511347 l -0.07909,0.208023 -2.022298,0 -2.022297,0 0.181059,-0.861187 z m 6.566372,0.390659 c 0.02705,-0.258792 0.04918,-0.723833 0.04918,-1.033424 l 0,-0.562896 0.574125,0 c 0.315769,0 0.574126,0.02585 0.574126,0.05745 0,0.03159 -0.05107,0.29856 -0.113496,0.593261 -0.06243,0.294701 -0.114094,0.733894 -0.114826,0.975983 l -0.0013,0.440162 -0.50848,0 -0.508481,0 0.04918,-0.470528 z m 3.541194,-0.0078 c 0.06062,-0.26314 0.228113,-0.728181 0.372189,-1.033423 l 0.261958,-0.554987 1.949865,0 1.949864,0 0.09258,0.280528 c 0.1026,0.310884 0.06033,1.23127 -0.07239,1.575807 l -0.08109,0.210513 -2.291609,0 -2.291609,0 0.11023,-0.478438 z m 7.176324,0.123279 c 0.02678,-0.195338 0.04868,-0.660378 0.04868,-1.033424 l 0,-0.678265 0.889255,0 c 0.884982,0 0.88903,8.26e-4 0.842594,0.172237 -0.02567,0.09473 -0.122894,0.559771 -0.216069,1.033424 l -0.16941,0.861187 -0.721865,0 -0.721865,0 0.04868,-0.355159 z m 3.92232,-0.467754 c 0.09883,-0.452601 0.181401,-0.926253 0.183493,-1.052561 0.003,-0.17735 0.116689,0.0037 0.499489,0.794867 0.272627,0.563482 0.495688,1.037135 0.495688,1.052561 0,0.01542 -0.305631,0.02805 -0.67918,0.02805 l -0.679178,0 0.179688,-0.822913 z m 3.360347,-0.144071 c -0.252615,-0.527292 -0.470783,-0.990472 -0.484817,-1.029288 -0.01474,-0.04077 0.397422,-0.07057 0.976015,-0.07057 0.814137,0 1.001529,0.02034 1.001529,0.108701 0,0.05979 -0.08612,0.507017 -0.191375,0.993848 -0.105257,0.486832 -0.191375,0.902957 -0.191375,0.924724 0,0.02177 -0.146402,0.03772 -0.325339,0.03544 l -0.325336,-0.0042 -0.459302,-0.958713 z m 3.507242,0.794746 c 0.02245,-0.09473 0.120335,-0.559771 0.217536,-1.033424 l 0.176728,-0.861186 1.506906,0 1.506906,0 -0.582535,1.033424 -0.582535,1.033424 -1.141908,0 -1.141907,0 0.0408,-0.172238 z m 5.028098,0.119974 c 0,-0.02875 0.243298,-0.493785 0.540663,-1.033425 0.523739,-0.950444 0.54859,-0.981159 0.793858,-0.981159 l 0.253194,0 0.08919,0.861186 c 0.04905,0.473653 0.105844,0.938694 0.126204,1.033424 0.03678,0.171116 0.03103,0.172238 -0.883045,0.172238 -0.506032,0 -0.920059,-0.02352 -0.920059,-0.05227 z m 4.131724,-0.04342 c -0.001,-0.05263 -0.06421,-0.51767 -0.140263,-1.033424 l -0.13828,-0.937737 2.10059,0 2.100589,0 -0.0408,0.172237 c -0.02245,0.09473 -0.120329,0.559771 -0.217533,1.033424 l -0.176731,0.861187 -1.742786,0 c -1.342146,0 -1.743253,-0.022 -1.744777,-0.09568 z m 6.171915,-0.7655 c 0.100725,-0.473653 0.201136,-0.938694 0.223161,-1.033424 l 0.04004,-0.172237 1.882321,0 1.882313,0 -0.0408,0.172237 c -0.0225,0.09473 -0.120341,0.559771 -0.217541,1.033424 l -0.176731,0.861187 -1.887931,0 -1.887939,0 0.183115,-0.861187 z"
       style="fill:#ededee" />
    <path
       inkscape:connector-curvature="0"
       id="path3290"
       d="m 60.827916,69.454897 c -0.09522,-0.121414 -0.09251,-0.124121 0.0289,-0.0289 0.07368,0.05778 0.133962,0.118066 0.133962,0.133962 0,0.06301 -0.06286,0.02246 -0.162864,-0.10506 z m 6.784451,-0.325338 c 0.07621,-0.08421 0.155779,-0.1531 0.17683,-0.1531 0.02104,0 -0.02408,0.06889 -0.100277,0.1531 -0.07621,0.08421 -0.155779,0.1531 -0.17683,0.1531 -0.02104,0 0.02408,-0.06889 0.100287,-0.1531 z M 57.010174,68.861635 c 0.09888,-0.105256 0.197012,-0.191375 0.218063,-0.191375 0.02105,0 -0.04263,0.08612 -0.141513,0.191375 -0.09888,0.105256 -0.197011,0.191374 -0.218063,0.191374 -0.02104,0 0.04263,-0.08612 0.141513,-0.191374 z m 22.977962,-2.487873 c 0.07766,-0.357871 0.158843,-0.728181 0.180418,-0.822912 0.03846,-0.168882 0.06083,-0.172237 1.147743,-0.172237 0.609687,0 1.10852,0.01686 1.10852,0.03746 0,0.02061 -0.191468,0.380252 -0.425484,0.799215 l -0.425485,0.761748 -0.863451,0.02369 -0.863454,0.02369 0.141193,-0.650676 z m -36.654543,0.363611 c 0.02361,-0.136832 0.06377,-0.421024 0.08925,-0.631536 0.02548,-0.210513 0.06233,-0.460256 0.08187,-0.554987 l 0.03556,-0.172237 2.945722,0 c 2.754847,0 2.945648,0.0088 2.944589,0.133962 -9.72e-4,0.115395 -0.05108,0.358398 -0.268306,1.301349 l -0.03967,0.172237 -2.915965,0 -2.915966,0 0.04293,-0.248788 z m 8.342433,0.07655 c 0.02253,-0.09473 0.101021,-0.456429 0.174436,-0.803774 l 0.133476,-0.631537 2.020701,0 2.020701,0 -0.05138,0.172237 c -0.08428,0.282518 -0.417704,0.821881 -0.703886,1.13865 l -0.268016,0.296661 -1.683494,0 -1.683494,0 0.04097,-0.172237 z m 6.668605,0 c 0.02804,-0.09473 0.123763,-0.456429 0.212746,-0.803774 l 0.161786,-0.631537 0.485132,0 0.485133,0 0,0.803775 0,0.803773 -0.697878,0 c -0.687793,0 -0.697143,-0.0024 -0.646919,-0.172237 z M 62.35617,66.63123 c -0.08635,-0.195212 -0.175316,-0.55691 -0.197701,-0.803774 l -0.0407,-0.448844 2.307136,0 c 1.441914,0 2.307134,0.02788 2.307134,0.07437 0,0.150096 -0.370453,0.891718 -0.603339,1.207844 l -0.239671,0.325337 -1.687928,0 -1.687927,0 -0.157004,-0.354929 z m 6.710659,0.220968 c 0.03006,-0.07368 0.128019,-0.435377 0.217676,-0.803775 l 0.163009,-0.669811 0.670842,0 c 0.765397,0 0.730323,-0.04689 0.554688,0.741611 -0.06389,0.286805 -0.133436,0.598969 -0.154558,0.6937 -0.03657,0.163969 -0.07363,0.172237 -0.772364,0.172237 -0.668799,0 -0.729105,-0.01189 -0.679293,-0.133962 z m 3.81744,-0.03828 c 0.02535,-0.09473 0.102973,-0.456429 0.172506,-0.803774 l 0.126427,-0.631537 0.697614,3.82e-4 0.697613,3.83e-4 0.344475,0.73643 c 0.189462,0.405035 0.355958,0.766578 0.369993,0.803426 0.01403,0.03678 -0.532533,0.06692 -1.214593,0.06692 l -1.240109,0 0.04608,-0.172236 z m 16.71067,-0.07493 c -0.02378,-0.137724 -0.06408,-0.422647 -0.08956,-0.633159 -0.02548,-0.210513 -0.06233,-0.460256 -0.08187,-0.554987 l -0.03556,-0.172237 1.723831,0 c 1.592051,0 1.723572,0.01027 1.720342,0.133962 -0.0018,0.07368 -0.06364,0.426765 -0.137155,0.784637 l -0.133656,0.650674 -1.461572,0.02076 -1.46158,0.02076 -0.04324,-0.250409 z m 5.488866,0.07493 c 0.02534,-0.09473 0.102972,-0.456429 0.172506,-0.803774 l 0.12643,-0.631537 1.864998,0 c 1.725585,0 1.864915,0.01 1.863875,0.133962 -9.9e-4,0.115395 -0.0511,0.358398 -0.26831,1.301349 l -0.0397,0.172237 -1.882953,0 -1.882951,0 0.04608,-0.172237 z m 6.286695,-0.07608 c 0.11261,-0.559379 -0.0416,-0.512044 1.7426,-0.534812 l 1.61796,-0.02065 0.0811,-0.382751 0.0811,-0.382749 4.30812,-0.01977 4.30814,-0.01978 -0.0532,0.40161 c -0.0292,0.220887 -0.0916,0.57426 -0.13846,0.785275 l -0.0852,0.383665 -5.95616,0.01961 -5.95618,0.01961 0.0501,-0.249258 z M 77.449059,65.932194 c -0.105256,-0.23522 -0.202858,-0.456003 -0.216891,-0.49063 -0.01403,-0.03462 0.115798,-0.06296 0.28852,-0.06296 0.287027,0 0.310439,0.01481 0.272217,0.172237 -0.023,0.09473 -0.06672,0.315513 -0.09715,0.490629 l -0.05533,0.318392 -0.191376,-0.427671 z m 7.70388,-0.438762 c 0.03589,-0.09352 0.22009,-0.114825 0.992749,-0.114825 0.792244,0 0.948687,0.01895 0.948687,0.114825 0,0.09616 -0.161339,0.114825 -0.99275,0.114825 -0.850992,0 -0.986457,-0.0164 -0.948686,-0.114825 z m 25.359981,-9.205129 -0.18559,-0.210512 0.21051,0.185582 c 0.11579,0.102068 0.21052,0.196799 0.21052,0.210511 0,0.06003 -0.062,0.01118 -0.23544,-0.185581 z m -6.97851,-2.982175 c 0.0952,-0.01831 0.23301,-0.01761 0.30621,0.0015 0.0732,0.01916 -0.005,0.03415 -0.17314,0.03329 -0.1684,-8.5e-4 -0.22829,-0.01652 -0.13307,-0.03484 z"
       style="fill:#e8e9ea" />
    <path
       inkscape:connector-curvature="0"
       id="path3288"
       d="m 43.197811,67.388049 c 0.02537,-0.115782 0.05939,-0.253572 0.0756,-0.306201 0.02291,-0.07436 0.680281,-0.09569 2.949715,-0.09569 l 2.920235,0 -0.04615,0.172238 c -0.02538,0.09473 -0.04663,0.232521 -0.0472,0.3062 -9.8e-4,0.125245 -0.192888,0.133962 -2.949684,0.133962 l -2.948637,0 0.04613,-0.210512 z m 8.335038,0.114824 c 0.01621,-0.05263 0.05023,-0.190418 0.07561,-0.306199 l 0.04613,-0.210513 1.663507,0.0023 c 1.834726,0.0027 1.849982,0.0094 0.974555,0.426213 -0.352563,0.167882 -0.477651,0.182316 -1.586012,0.183004 -0.927568,6.13e-4 -1.196508,-0.02118 -1.173783,-0.09494 z m 6.612124,-0.209734 0.128279,-0.305421 0.706631,-7.81e-4 0.706628,-7.8e-4 0.04613,0.210513 c 0.02538,0.115781 0.05939,0.253571 0.07561,0.306198 0.02244,0.07283 -0.187935,0.09569 -0.881035,0.09569 l -0.910516,0 0.128279,-0.305421 z m 4.673719,0.0023 -0.335183,-0.303059 1.674337,-0.0032 c 1.54169,-0.003 1.666105,0.0067 1.570401,0.122096 -0.05716,0.06888 -0.232935,0.20667 -0.390602,0.306201 -0.261523,0.165093 -0.369856,0.180964 -1.235218,0.180964 l -0.948552,0 -0.335183,-0.30306 z m 5.980202,0.274137 c 0,-0.01591 0.05213,-0.1537 0.115852,-0.3062 l 0.115853,-0.277273 0.735127,0 c 0.724997,0 0.734491,0.0023 0.68897,0.172238 -0.02539,0.09473 -0.04663,0.23252 -0.0472,0.3062 -9.26e-4,0.119011 -0.09076,0.133962 -0.804821,0.133962 -0.442078,0 -0.803777,-0.01301 -0.803777,-0.02892 z m 3.93834,-0.06676 c 0.01621,-0.05263 0.05024,-0.190419 0.0756,-0.306201 l 0.04613,-0.210512 1.24744,0 1.247442,0 0.129003,0.270522 c 0.07096,0.148788 0.129002,0.286577 0.129002,0.3062 0,0.01963 -0.653422,0.03568 -1.45205,0.03568 -1.126328,0 -1.445437,-0.02146 -1.422571,-0.09569 z m 7.049523,-0.1531 c 0.02935,-0.136833 0.06856,-0.274624 0.08715,-0.3062 0.01859,-0.03158 0.393458,-0.05741 0.833049,-0.05741 0.439593,0 0.79913,0.02584 0.798972,0.05741 -1.53e-4,0.03158 -0.06854,0.169367 -0.151974,0.3062 l -0.151689,0.248787 -0.734435,0 -0.734434,0 0.05336,-0.248787 z m 9.909274,0.114825 c -7.66e-4,-0.07369 -0.02181,-0.211469 -0.0472,-0.3062 l -0.04616,-0.172238 1.472311,0 1.472312,0 -0.04616,0.172238 c -0.0254,0.09473 -0.04663,0.23252 -0.0472,0.3062 -9.96e-4,0.122583 -0.118096,0.133962 -1.378953,0.133962 -1.260856,0 -1.377993,-0.01137 -1.37895,-0.133962 z m 5.30046,-0.172238 0.07773,-0.3062 1.875095,0 1.875091,0 -0.04612,0.172238 c -0.02545,0.09473 -0.04663,0.23252 -0.04724,0.3062 -9.98e-4,0.123967 -0.143228,0.133962 -1.906669,0.133962 l -1.905609,0 0.07773,-0.3062 z m 6.217389,0.210513 c 0.0162,-0.05263 0.0502,-0.190419 0.0755,-0.306201 l 0.0461,-0.210512 5.93118,0 c 3.26214,0 5.93117,0.02931 5.93117,0.06512 0,0.03581 -0.0378,0.173608 -0.0841,0.306199 l -0.0841,0.241073 -5.92275,0 c -4.70289,0 -5.91667,-0.01971 -5.89326,-0.09569 z"
       style="fill:#e7e8e8" />
    <path
       inkscape:connector-curvature="0"
       id="path3286"
       d="m 57.717607,68.057861 0.316944,-0.4593 0.884851,6.8e-5 0.884853,6.9e-5 0.167039,0.45923 0.167042,0.459232 -1.368836,0 -1.368837,0 0.316944,-0.459299 z m 10.558627,0.401886 c 0.01427,-0.03158 0.129098,-0.237765 0.255168,-0.458196 l 0.229216,-0.400783 0.784639,-0.0011 c 0.877431,-0.0012 0.850339,-0.02361 0.699003,0.577399 l -0.08564,0.340097 -0.954167,0 c -0.524794,0 -0.942492,-0.02584 -0.92822,-0.05741 z M 72.5746,68.344922 c 0.02273,-0.09473 0.06476,-0.301414 0.09337,-0.459299 l 0.05202,-0.287062 1.466132,0 1.466133,0 0.202996,0.4593 0.202999,0.459299 -1.762499,0 -1.762498,0 0.04134,-0.172238 z m 7.053603,-0.182024 c 0.08763,-0.584374 0.05717,-0.564337 0.857956,-0.564337 l 0.724221,0 -0.252503,0.4593 -0.252501,0.459299 -0.56515,0 -0.565148,0 0.05312,-0.354262 z m 4.097966,0.310954 c 0,-0.02381 0.03566,-0.109937 0.07924,-0.191374 0.07474,-0.139645 0.177072,-0.148068 1.798928,-0.148068 0.993306,0 1.719685,0.0297 1.719685,0.0703 0,0.03866 0.02091,0.124778 0.04646,0.191376 0.04158,0.108351 -0.147621,0.121085 -1.798928,0.121085 -1.014967,0 -1.845393,-0.01948 -1.845393,-0.04331 z m 6.084794,-0.243754 c -0.02539,-0.157885 -0.06205,-0.364569 -0.08148,-0.459301 l -0.03531,-0.172236 1.349777,0 1.349779,0 -0.05312,0.354262 c -0.08995,0.599838 -0.0076,0.564337 -1.30861,0.564337 l -1.174867,0 -0.04615,-0.287062 z m 4.963174,0.114824 c 0.02274,-0.09473 0.06476,-0.301414 0.09337,-0.459299 l 0.05202,-0.287062 1.866958,0 c 2.086919,0 1.939075,-0.04802 1.78132,0.578501 l -0.08564,0.340098 -1.874691,0 -1.874689,0 0.04134,-0.172238 z m 9.855563,-0.07604 c 0.13284,-0.463211 0.21928,-0.440667 -1.68945,-0.440667 -1.51399,0 -1.76065,-0.01609 -1.76065,-0.114825 0,-0.101081 0.70965,-0.114825 5.92762,-0.114825 l 5.92761,0 -0.15511,0.4593 -0.1551,0.459299 -4.08307,0 -4.08305,0 0.0712,-0.248282 z m -61.678905,0.06169 c 0.02323,-0.06051 0.07992,-0.249982 0.125966,-0.421025 l 0.08374,-0.310987 2.905954,0 c 3.251605,0 2.993583,-0.05069 2.825379,0.554986 l -0.07972,0.287062 -2.951773,0 c -2.535265,0 -2.945814,-0.01553 -2.909547,-0.110036 z m 8.54777,-0.606344 c 0,-0.111143 0.130515,-0.124908 1.129115,-0.11909 1.316143,0.0076 1.200285,0.108509 -0.220129,0.191591 -0.813407,0.04757 -0.908986,0.03996 -0.908986,-0.0725 z m 11.903545,-0.04911 c -0.09769,-0.04198 0.151676,-0.06579 0.688952,-0.06579 0.537275,0 0.786636,0.02381 0.688951,0.06579 -0.08421,0.03619 -0.394234,0.06579 -0.688951,0.06579 -0.294719,0 -0.604748,-0.02961 -0.688952,-0.06579 z"
       style="fill:#e6e7e8" />
    <path
       inkscape:connector-curvature="0"
       id="path3284"
       d="m 42.422869,69.837647 c 0.137081,-0.326295 0.308897,-0.774113 0.381812,-0.99515 l 0.132573,-0.401887 2.941029,0 c 1.617565,0 2.941027,0.01497 2.941027,0.03327 0,0.01829 -0.05247,0.282736 -0.116615,0.587638 -0.07167,0.340705 -0.08853,0.571732 -0.04373,0.599419 0.04595,0.0284 0.04433,0.179028 -0.0044,0.407512 l -0.07731,0.362459 -3.201813,0 -3.201817,0 0.249239,-0.593261 z m 11.869775,0.466201 c 1.064453,-0.227606 2.183984,-0.811438 2.828754,-1.475183 l 0.302597,-0.311505 1.358275,0 1.358275,0 0.280085,0.421966 c 0.357147,0.538062 0.776462,0.895371 1.44076,1.227703 l 0.527864,0.264078 -4.316231,-0.0062 c -4.029043,-0.0058 -4.280576,-0.01387 -3.780379,-0.120819 z m 11.750446,-0.09043 c 0.734041,-0.314751 1.127544,-0.586345 1.697468,-1.17158 l 0.510941,-0.524669 0.964108,0 c 0.960381,0 0.963955,6.88e-4 0.924956,0.172237 -0.170227,0.748898 -0.193466,0.928671 -0.125473,0.970693 0.04785,0.02956 0.04677,0.174848 -0.0031,0.408359 l -0.07731,0.36246 -2.194616,-0.002 -2.194618,-0.002 0.497577,-0.213357 z m 6.129053,0.08353 c 0.0029,-0.07368 0.08264,-0.495661 0.17747,-0.937737 l 0.172426,-0.803774 1.773263,-0.02054 1.773263,-0.02054 0.460596,0.91883 c 0.253328,0.505356 0.460596,0.936584 0.460596,0.958281 0,0.02171 -1.085097,0.03946 -2.411328,0.03946 -2.247392,0 -2.410987,-0.0092 -2.406286,-0.133962 z m 7.18002,-0.819512 0.199493,-0.960274 0.556254,0 c 0.30594,0 0.556254,0.01469 0.556254,0.03264 0,0.01796 -0.136711,0.267696 -0.303801,0.554987 l -0.303802,0.52235 0.188977,0.02422 c 0.230238,0.02951 0.230878,0.05028 0.0134,0.435077 -0.169204,0.299377 -0.183453,0.306701 -0.639663,0.328737 l -0.466603,0.02254 0.199492,-0.960274 z m 3.378853,0.914021 c 0,-0.0217 0.206952,-0.452291 0.459892,-0.956873 l 0.459892,-0.917422 1.865435,0 1.865435,0 0.08911,0.746362 c 0.04902,0.410499 0.107673,0.841092 0.130359,0.956873 l 0.04124,0.210512 -2.455685,0 c -1.35063,0 -2.455689,-0.01775 -2.455689,-0.03946 z m 7.238321,-0.209334 c -0.02248,-0.136833 -0.0328,-0.386577 -0.02294,-0.554987 0.0099,-0.168409 -0.009,-0.487049 -0.04177,-0.708087 l -0.05973,-0.401887 1.189167,0 c 0.654037,0 1.187951,0.02583 1.186473,0.05742 -0.0014,0.03158 -0.05059,0.280874 -0.109123,0.553995 -0.06825,0.318376 -0.07943,0.513278 -0.03114,0.54311 0.06734,0.04162 0.05051,0.215123 -0.0607,0.625269 -0.0322,0.118774 -0.14817,0.133962 -1.022847,0.133962 l -0.986525,0 -0.04087,-0.248787 z m 4.3973,0.171426 c 0,-0.06424 0.191161,-0.982524 0.346436,-1.66415 l 0.03923,-0.172237 1.875478,0 1.875479,0 -0.03914,0.172237 c -0.170232,0.748898 -0.193466,0.928671 -0.125474,0.970692 0.04785,0.02956 0.04677,0.174849 -0.0031,0.40836 l -0.07729,0.362458 -1.945827,0 c -1.259778,0 -1.945828,-0.02727 -1.945828,-0.07736 z m 9.978743,-0.0566 c 0.0207,-0.07368 0.11288,-0.474061 0.20497,-0.889736 0.13895,-0.627276 0.14971,-0.766987 0.0633,-0.82174 -0.059,-0.0374 1.66061,-0.06647 3.97218,-0.06714 2.24197,-6.12e-4 4.0763,0.01719 4.0763,0.03964 0,0.08073 -0.40526,0.849775 -0.71468,1.356217 l -0.31569,0.516711 -3.66196,0 c -3.45084,0 -3.65979,-0.0076 -3.62441,-0.133961 z"
       style="fill:#e4e5e6" />
    <path
       inkscape:connector-curvature="0"
       id="path3282"
       d="m 111.09285,72.268106 c 0.0761,-0.08421 0.15578,-0.153099 0.17682,-0.153099 0.0211,0 -0.0241,0.06889 -0.10028,0.153099 -0.0761,0.08421 -0.15578,0.1531 -0.17683,0.1531 -0.0211,0 0.0241,-0.06889 0.10028,-0.1531 z m -69.928552,0.04755 c 0,-0.01595 0.118086,-0.225103 0.262414,-0.464783 0.14433,-0.23968 0.376851,-0.657496 0.516715,-0.92848 l 0.254297,-0.492695 10.334268,0.03751 c 5.683847,0.02063 10.799309,0.0373 11.367694,0.03703 0.568385,-2.3e-4 11.533863,-0.01715 24.367728,-0.03751 l 23.334306,-0.03704 -0.17561,0.249401 c -0.0966,0.137171 -0.48946,0.568041 -0.87308,0.95749 l -0.69748,0.708086 -34.345624,0 c -18.890096,0 -34.345628,-0.01304 -34.345628,-0.029 z m 69.921272,-16.601469 -0.14584,-0.172238 0.17226,0.145826 c 0.16185,0.137041 0.20708,0.198649 0.14582,0.198649 -0.0146,0 -0.092,-0.0775 -0.17224,-0.172237 z"
       style="fill:#e0e1e2" />
    <path
       inkscape:connector-curvature="0"
       id="path3280"
       d="m 49.986199,72.899646 -9.205655,-0.01976 0.172739,-0.266668 0.172739,-0.266669 34.313596,-9.5e-4 c 18.872477,-5.35e-4 34.313592,0.01335 34.313592,0.03082 0,0.01747 -0.16824,0.155256 -0.37386,0.306201 l -0.37388,0.274446 -24.906806,-0.01882 c -13.698746,-0.01038 -29.049356,-0.02772 -34.112465,-0.03859 z"
       style="fill:#dee0e1" />
    <path
       inkscape:connector-curvature="0"
       id="path3278"
       d="m 39.890698,74.009617 c 0.110263,-0.136833 0.347198,-0.450058 0.526526,-0.696054 l 0.326047,-0.447267 13.817299,0.04535 c 7.599514,0.02495 22.9459,0.04646 34.103083,0.04782 17.799047,0.0021 20.267677,0.01616 20.138087,0.114191 -0.29095,0.220113 -1.51908,0.818243 -2.05282,0.999778 l -0.54383,0.184969 -33.257433,0 -33.257433,0 0.200474,-0.248787 z M 113.52348,63.19694 c 8.3e-4,-0.16841 0.0165,-0.228291 0.0349,-0.13307 0.0182,0.09522 0.0176,0.233011 -0.001,0.3062 -0.0192,0.07319 -0.0341,-0.0048 -0.0333,-0.17313 z m -3.32073,-7.21483 c -0.0953,-0.121413 -0.0924,-0.124121 0.0289,-0.0289 0.12751,0.100002 0.16807,0.162864 0.10506,0.162864 -0.0159,0 -0.0761,-0.06029 -0.13396,-0.133962 z"
       style="fill:#dddee0" />
    <path
       inkscape:connector-curvature="0"
       id="path3276"
       d="m 104.3038,75.430912 c 0.0552,-0.02211 0.12128,-0.01939 0.14672,0.006 0.0255,0.02544 -0.0199,0.04352 -0.10048,0.0402 -0.0892,-0.0037 -0.10731,-0.02182 -0.0463,-0.04625 z m -64.861881,-0.942858 0.22002,-0.22965 33.304121,0.0069 c 32.63826,0.0067 33.29341,0.0098 32.76827,0.14956 -0.29472,0.07846 -0.82865,0.178593 -1.18652,0.222524 -0.44242,0.05431 -11.000711,0.07995 -32.988296,0.08009 l -32.337614,2.31e-4 0.220019,-0.22965 z m 68.250821,-0.793405 c 0.0175,-0.01535 0.11802,-0.06892 0.22328,-0.119048 0.18044,-0.08594 0.18289,-0.08434 0.0428,0.0279 -0.12195,0.0977 -0.37111,0.183053 -0.26606,0.09115 z m 2.82596,-2.000667 c 0.2287,-0.231563 0.43304,-0.421025 0.45409,-0.421025 0.0211,0 -0.14884,0.189462 -0.37753,0.421025 -0.22868,0.231564 -0.43302,0.421025 -0.45406,0.421025 -0.0211,0 0.14882,-0.189461 0.3775,-0.421025 z m 0.68897,-0.756126 c 0,-0.0159 0.0603,-0.07618 0.13397,-0.133963 0.12141,-0.09522 0.12411,-0.09251 0.0289,0.0289 -0.10007,0.127513 -0.16287,0.168064 -0.16287,0.105061 z m 0.22965,-0.306201 c 0,-0.0159 0.0603,-0.07618 0.13397,-0.133961 0.12141,-0.09522 0.12411,-0.09251 0.0289,0.0289 -0.10008,0.127512 -0.16287,0.168064 -0.16287,0.105059 z M 60.827916,68.689397 c -0.09522,-0.121413 -0.09251,-0.12412 0.0289,-0.0289 0.07368,0.05778 0.133962,0.118067 0.133962,0.133962 0,0.06301 -0.06286,0.02245 -0.162864,-0.10506 z m 6.784451,-0.325338 c 0.07621,-0.08421 0.155779,-0.153098 0.17683,-0.153098 0.02104,0 -0.02408,0.06889 -0.100277,0.153098 -0.07621,0.08421 -0.155779,0.153101 -0.17683,0.153101 -0.02104,0 0.02408,-0.06889 0.100287,-0.153101 z M 57.010174,68.096135 c 0.09888,-0.105256 0.197012,-0.191375 0.218063,-0.191375 0.02105,0 -0.04263,0.08612 -0.141513,0.191375 -0.09888,0.105256 -0.197011,0.191375 -0.218063,0.191375 -0.02104,0 0.04263,-0.08612 0.141513,-0.191375 z m -1.875479,-1.263074 c 0.07621,-0.08421 0.155779,-0.153099 0.17683,-0.153099 0.02104,0 -0.02408,0.06889 -0.100287,0.153099 -0.07621,0.08421 -0.155778,0.1531 -0.17683,0.1531 -0.02104,0 0.02408,-0.06889 0.100287,-0.1531 z m 58.298965,-0.963253 c 0.004,-0.08918 0.0218,-0.107315 0.0463,-0.04625 0.0221,0.05527 0.0195,0.121284 -0.006,0.146721 -0.0254,0.02544 -0.0435,-0.01978 -0.0402,-0.10047 z m -51.351873,-0.45292 c 8.5e-4,-0.16841 0.01652,-0.228291 0.03484,-0.13307 0.0183,0.09522 0.01761,0.233012 -0.0015,0.3062 -0.01916,0.07319 -0.03414,-0.0048 -0.03329,-0.17313 z m -42.299425,0.13404 c 1.018064,-0.01205 2.705995,-0.01206 3.750955,-2.7e-5 1.044961,0.01204 0.211999,0.0219 -1.851028,0.02191 -2.063025,1.4e-5 -2.917993,-0.0099 -1.899927,-0.02189 z m 94.493338,-0.06387 c 0.004,-0.08918 0.0218,-0.107314 0.0463,-0.04625 0.0221,0.05526 0.0195,0.121283 -0.006,0.146721 -0.0255,0.02544 -0.0435,-0.01978 -0.0402,-0.100471 z m -0.74859,-0.491195 c 0,-0.231563 0.0144,-0.326295 0.0319,-0.210512 0.0175,0.115781 0.0175,0.305242 0,0.421024 -0.0175,0.115782 -0.0319,0.02104 -0.0319,-0.210512 z M 56.250715,64.185706 c 0.0037,-0.08918 0.02182,-0.107316 0.04625,-0.04624 0.02211,0.05526 0.01939,0.121283 -0.006,0.14672 -0.02544,0.02544 -0.04352,-0.01978 -0.0402,-0.10047 z m 13.166624,-0.07655 c 0.0037,-0.08918 0.02182,-0.107315 0.04625,-0.04625 0.02211,0.05526 0.01939,0.121283 -0.006,0.146721 -0.02544,0.02544 -0.04352,-0.01978 -0.0402,-0.10047 z m 44.098911,-1.333245 c 0,-0.105256 0.0173,-0.148315 0.0386,-0.09569 0.0213,0.05262 0.0213,0.138747 0,0.191375 -0.0213,0.05263 -0.0386,0.0096 -0.0386,-0.09569 z m 0.75945,-0.274303 c 0.004,-0.08918 0.0218,-0.107316 0.0463,-0.04625 0.0221,0.05526 0.0195,0.121284 -0.006,0.146721 -0.0255,0.02544 -0.0435,-0.01978 -0.0402,-0.10047 z m -27.481482,-0.3062 c 0.0037,-0.08918 0.02182,-0.107315 0.04625,-0.04625 0.02211,0.05525 0.01939,0.121284 -0.006,0.146722 -0.02544,0.02544 -0.04352,-0.01978 -0.0402,-0.100471 z M 66.339525,61.876454 c -0.09522,-0.121413 -0.09251,-0.124121 0.0289,-0.0289 0.07367,0.05778 0.133962,0.118067 0.133962,0.133961 0,0.06301 -0.06286,0.02245 -0.162864,-0.105059 z M 53.815663,61.344968 c 0.07448,-0.0194 0.177823,-0.01813 0.229651,0.0029 0.05183,0.02097 -0.0092,0.03685 -0.13542,0.03528 -0.126308,-0.0015 -0.168711,-0.01871 -0.09423,-0.03813 z m 11.06093,-0.0011 c 0.09522,-0.0183 0.233011,-0.01761 0.3062,0.0015 0.07319,0.01916 -0.0048,0.03415 -0.173131,0.03329 -0.16841,-8.51e-4 -0.228291,-0.01652 -0.133069,-0.03484 z M 25.905892,58.04898 c 1.944058,-0.01137 5.14768,-0.01137 7.119162,-9e-6 1.97148,0.01137 0.380887,0.02069 -3.534652,0.02069 -3.915539,5e-6 -5.528568,-0.0094 -3.58451,-0.02068 z m 85.062358,-1.301371 c -0.0952,-0.121413 -0.0924,-0.124121 0.0289,-0.0289 0.12751,0.100002 0.16807,0.162864 0.10505,0.162864 -0.0159,0 -0.0761,-0.06029 -0.13396,-0.133962 z m -6.97544,-3.438032 c 0.0526,-0.02124 0.13876,-0.02124 0.19139,0 0.0526,0.02124 0.009,0.0386 -0.0957,0.0386 -0.10527,0 -0.14833,-0.01738 -0.0957,-0.0386 z m 0.31099,-0.767094 c 0.0552,-0.02211 0.12128,-0.01939 0.14672,0.006 0.0255,0.02544 -0.0199,0.04352 -0.10048,0.0402 -0.0892,-0.0037 -0.10731,-0.02182 -0.0463,-0.04625 z"
       style="fill:#dbdcdd" />
    <path
       inkscape:connector-curvature="0"
       id="path3274"
       d="m 17.730193,75.196141 c -0.09522,-0.121414 -0.09251,-0.124121 0.0289,-0.0289 0.07367,0.05778 0.133962,0.118067 0.133962,0.133962 0,0.06301 -0.06286,0.02246 -0.162864,-0.10506 z m -0.724734,-0.727224 -0.145829,-0.172238 0.172239,0.145827 c 0.161861,0.137041 0.207085,0.198648 0.145827,0.198648 -0.01453,0 -0.09203,-0.0775 -0.172237,-0.172237 z m 18.264478,-5.52136 c 0,-0.0159 0.06029,-0.07617 0.133963,-0.133962 0.121413,-0.09522 0.124121,-0.09251 0.0289,0.0289 -0.100002,0.127513 -0.162865,0.168065 -0.162865,0.105061 z m 8.196908,-6.369396 c 0.0037,-0.08918 0.02182,-0.107314 0.04625,-0.04624 0.02211,0.05526 0.01939,0.121283 -0.006,0.146721 -0.02544,0.02544 -0.04352,-0.01978 -0.0402,-0.100471 z M 17.051006,53.475099 c 0.09888,-0.105256 0.197013,-0.191374 0.218064,-0.191374 0.02104,0 -0.04263,0.08612 -0.141513,0.191374 -0.09888,0.105257 -0.197012,0.191376 -0.218063,0.191376 -0.02104,0 0.04264,-0.08612 0.141512,-0.191376 z m 22.230541,-0.05741 -0.145828,-0.172238 0.172238,0.145826 c 0.161861,0.137042 0.207085,0.198648 0.145827,0.198648 -0.01453,0 -0.09203,-0.0775 -0.172237,-0.172236 z M 17.586857,52.93925 c 0.09888,-0.105256 0.197012,-0.191375 0.218064,-0.191375 0.02104,0 -0.04264,0.08612 -0.141514,0.191375 -0.09888,0.105256 -0.197011,0.191374 -0.218062,0.191374 -0.02105,0 0.04264,-0.08612 0.141512,-0.191374 z"
       style="fill:#a9c9e3" />
    <path
       inkscape:connector-curvature="0"
       id="path3272"
       d="m 26.98817,79.258407 c 0.05526,-0.02211 0.121284,-0.01939 0.146722,0.006 0.02544,0.02544 -0.01978,0.04352 -0.100471,0.0402 -0.08918,-0.0037 -0.107315,-0.02182 -0.04625,-0.04625 z m 2.373053,0 c 0.05527,-0.02211 0.121285,-0.01939 0.146723,0.006 0.02544,0.02544 -0.01978,0.04352 -0.10047,0.0402 -0.08918,-0.0037 -0.107317,-0.02182 -0.04625,-0.04625 z M 39.36537,74.488054 c 0.07621,-0.08421 0.155777,-0.1531 0.176828,-0.1531 0.02104,0 -0.02408,0.06889 -0.100287,0.1531 -0.07621,0.08421 -0.155777,0.1531 -0.176828,0.1531 -0.02104,0 0.02408,-0.06889 0.100287,-0.1531 z M 12.923343,62.807811 c 0.0037,-0.08918 0.02182,-0.107315 0.04625,-0.04625 0.02211,0.05527 0.01939,0.121284 -0.006,0.146722 -0.02544,0.02544 -0.04352,-0.01978 -0.0402,-0.100471 z m 30.543502,0 c 0.0037,-0.08918 0.02182,-0.107315 0.04625,-0.04625 0.02211,0.05527 0.01939,0.121284 -0.006,0.146722 -0.02544,0.02544 -0.04352,-0.01978 -0.0402,-0.100471 z M 20.74455,62.718571 c 1.042039,-0.01203 2.747193,-0.01203 3.789233,0 1.042037,0.01202 0.18946,0.02188 -1.894617,0.02188 -2.084078,0 -2.936654,-0.0099 -1.894616,-0.02188 z m 17.82913,-2.392248 c 0,-0.105257 0.01738,-0.148316 0.0386,-0.09568 0.02124,0.05263 0.02124,0.138747 0,0.191376 -0.02124,0.05262 -0.0386,0.0096 -0.0386,-0.09569 z"
       style="fill:#8eb8db" />
    <path
       inkscape:connector-curvature="0"
       id="path3270"
       d="m 37.863113,75.595288 0.417265,-0.396356 33.073214,-0.0031 c 22.664294,-0.0019 33.281978,-0.02945 33.736488,-0.08695 1.40594,-0.177889 2.8129,-0.664831 4.0291,-1.394467 2.61211,-1.567036 4.32535,-4.006854 5.00857,-7.132625 0.20337,-0.930463 0.24895,-3.393471 0.0839,-4.536536 -0.23509,-1.628437 -0.76813,-3.049531 -1.64977,-4.398268 -1.48463,-2.271184 -3.69345,-3.837631 -6.37803,-4.523134 l -0.82189,-0.209865 -33.546687,-0.04098 -33.546684,-0.04098 -0.414418,-0.379465 -0.414417,-0.379467 33.961101,0.02221 33.961105,0.02221 0.70448,0.168386 c 2.34922,0.561519 4.11675,1.542366 5.71784,3.172963 1.63948,1.669698 2.67596,3.648663 3.14296,6.00101 0.19907,1.002664 0.19907,4.142289 0,5.144953 -0.467,2.352344 -1.50348,4.331311 -3.14296,6.001009 -1.60109,1.630598 -3.36862,2.611443 -5.71784,3.172963 l -0.70448,0.168387 -33.958078,0.02221 -33.958075,0.02221 0.417265,-0.396357 z m 15.079139,-5.718247 c 0.05652,-0.02303 0.124018,-0.0202 0.150029,0.0062 0.02602,0.02649 -0.02023,0.04532 -0.102736,0.04187 -0.0912,-0.0039 -0.109734,-0.02272 -0.04729,-0.04816 z m -0.826778,-1.913719 c 0.07534,-0.02005 0.198623,-0.02005 0.273962,0 0.07534,0.02005 0.01371,0.03646 -0.136982,0.03646 -0.150679,0 -0.212319,-0.0164 -0.13698,-0.03646 z m 11.429215,-0.0021 c 0.118984,-0.01832 0.295102,-0.01783 0.391377,10e-4 0.09627,0.01892 -10e-4,0.03392 -0.216333,0.03332 -0.215257,-6.39e-4 -0.294026,-0.01608 -0.175044,-0.0344 z m -1.893061,-2.859107 c 0.0037,-0.09287 0.02231,-0.111758 0.04729,-0.04816 0.02261,0.05754 0.01983,0.126303 -0.0061,0.152792 -0.02602,0.02649 -0.0445,-0.02059 -0.0411,-0.104626 z m 5.009595,-0.797176 c 0.0037,-0.09287 0.02231,-0.111757 0.04729,-0.04816 0.02261,0.05755 0.01983,0.126303 -0.0061,0.152792 -0.02602,0.02649 -0.04451,-0.02059 -0.0411,-0.104627 z m -8.437487,-0.631145 c 6.28e-4,-0.219222 0.01579,-0.299443 0.03379,-0.178268 0.018,0.121176 0.0175,0.300542 -10e-4,0.398588 -0.01858,0.09805 -0.0333,-0.001 -0.03272,-0.22032 z m 10.959561,-0.03987 c 0,-0.241146 0.01467,-0.339794 0.03262,-0.219222 0.01794,0.120574 0.01794,0.317873 0,0.438445 -0.01794,0.120574 -0.03262,0.02191 -0.03262,-0.219223 z m 17.829407,-0.843716 c 0.0037,-0.09287 0.02231,-0.111757 0.04729,-0.04816 0.02261,0.05756 0.01983,0.126303 -0.0061,0.152793 -0.02602,0.02649 -0.0445,-0.02059 -0.0411,-0.104627 z M 62.858707,62.039461 c 0.07792,-0.0877 0.159289,-0.159435 0.180815,-0.159435 0.02152,0 -0.02462,0.07174 -0.102536,0.159435 -0.07792,0.0877 -0.159287,0.159436 -0.180814,0.159436 -0.0215,0 0.02462,-0.07175 0.102546,-0.159436 z m 24.054688,-0.279013 c -0.01761,-0.153454 -0.0038,-0.27901 0.03057,-0.27901 0.03441,0 0.06257,0.125556 0.06257,0.27901 0,0.153457 -0.01376,0.279013 -0.03057,0.279013 -0.01682,0 -0.04496,-0.125556 -0.06256,-0.279013 z"
       style="fill:#b1b1b1" />
    <path
       inkscape:connector-curvature="0"
       id="path3268"
       d="m 38.676419,75.177004 c 0.07621,-0.08421 0.155777,-0.1531 0.176828,-0.1531 0.02104,0 -0.02408,0.06889 -0.100277,0.1531 -0.07621,0.08421 -0.155777,0.153099 -0.176828,0.153099 -0.02104,0 0.02408,-0.06889 0.100287,-0.153099 z m -21.325006,-0.363612 -0.185582,-0.210513 0.210514,0.185581 c 0.196755,0.173453 0.245619,0.235444 0.185581,0.235444 -0.01371,0 -0.108442,-0.09473 -0.210513,-0.210512 z m 26.115432,-9.632533 c 0.0037,-0.08918 0.02182,-0.107316 0.04625,-0.04625 0.02211,0.05527 0.01939,0.121284 -0.006,0.146722 -0.02544,0.02544 -0.04352,-0.01978 -0.0402,-0.10047 z m -4.757946,-12.337296 -0.185581,-0.210512 0.210512,0.18558 c 0.115782,0.10207 0.210514,0.1968 0.210514,0.210513 0,0.06003 -0.06199,0.01118 -0.235445,-0.185581 z"
       style="fill:#76aad4" />
    <path
       inkscape:connector-curvature="0"
       id="path3266"
       d="m 62.068527,65.793259 c 0.0037,-0.08918 0.02182,-0.107316 0.04625,-0.04625 0.02211,0.05526 0.01939,0.121284 -0.006,0.146722 -0.02544,0.02544 -0.04352,-0.01978 -0.0402,-0.10047 z M 56.250715,64.41536 c 0.0037,-0.08918 0.02182,-0.107315 0.04625,-0.04625 0.02211,0.05525 0.01939,0.121283 -0.006,0.146721 -0.02544,0.02544 -0.04352,-0.01978 -0.0402,-0.10047 z m 5.199367,-3.591468 c 0.142824,-0.147358 0.276907,-0.267925 0.297958,-0.267925 0.02104,0 -0.07858,0.120567 -0.221408,0.267925 -0.142827,0.14736 -0.276907,0.267925 -0.297959,0.267925 -0.02104,0 0.07858,-0.120565 0.221409,-0.267925 z m 6.730617,-0.401886 -0.185582,-0.210513 0.210514,0.185581 c 0.115781,0.102068 0.210512,0.196801 0.210512,0.210512 0,0.06003 -0.06199,0.01118 -0.235444,-0.18558 z"
       style="fill:#909091" />
    <path
       inkscape:connector-curvature="0"
       id="path3264"
       d="m 27.213037,79.260001 c 0.05263,-0.02124 0.138746,-0.02124 0.191374,0 0.05262,0.02124 0.0096,0.03862 -0.09569,0.03862 -0.105256,0 -0.148316,-0.01738 -0.09568,-0.03862 z m 1.837203,0 c 0.05262,-0.02124 0.138746,-0.02124 0.191375,0 0.05262,0.02124 0.0096,0.03862 -0.09569,0.03862 -0.105255,0 -0.148316,-0.01738 -0.09568,-0.03862 z m 9.970654,-4.427472 c 0.09888,-0.105256 0.197011,-0.191375 0.218062,-0.191375 0.02104,0 -0.04264,0.08612 -0.141512,0.191375 -0.09888,0.105256 -0.197011,0.191375 -0.218063,0.191375 -0.02104,0 0.04263,-0.08612 0.141513,-0.191375 z M 12.929386,64.919314 c 0,-0.105256 0.01738,-0.148316 0.0386,-0.09569 0.02124,0.05263 0.02124,0.138747 0,0.191374 -0.02124,0.05263 -0.0386,0.0096 -0.0386,-0.09568 z m 30.543502,0 c 0,-0.105256 0.01738,-0.148316 0.0386,-0.09569 0.02124,0.05263 0.02124,0.138747 0,0.191374 -0.02124,0.05263 -0.0386,0.0096 -0.0386,-0.09568 z M 12.929386,63.082116 c 0,-0.105257 0.01738,-0.148316 0.0386,-0.09569 0.02124,0.05263 0.02124,0.138747 0,0.191375 -0.02124,0.05263 -0.0386,0.0096 -0.0386,-0.09569 z m 30.543502,0 c 0,-0.105257 0.01738,-0.148316 0.0386,-0.09569 0.02124,0.05263 0.02124,0.138747 0,0.191375 -0.02124,0.05263 -0.0386,0.0096 -0.0386,-0.09569 z M 24.577782,61.110972 c 1.760931,-0.01146 4.620079,-0.01145 6.35366,1.1e-5 1.733583,0.01147 0.292821,0.02085 -3.201693,0.02085 -3.494513,-5e-6 -4.912898,-0.0094 -3.151967,-0.02086 z m 13.989855,-0.523109 c 0.0037,-0.08918 0.02182,-0.107315 0.04625,-0.04625 0.02211,0.05526 0.01939,0.121283 -0.006,0.146721 -0.02544,0.02544 -0.04352,-0.01978 -0.0402,-0.100471 z m 0.443492,-7.438101 c -0.09522,-0.121412 -0.09251,-0.12412 0.0289,-0.0289 0.07368,0.05778 0.133963,0.118066 0.133963,0.133962 0,0.06301 -0.06286,0.02245 -0.162865,-0.105061 z M 27.213037,48.716581 c 0.05263,-0.02124 0.138746,-0.02124 0.191374,0 0.05262,0.02124 0.0096,0.0386 -0.09569,0.0386 -0.105256,0 -0.148316,-0.01738 -0.09568,-0.0386 z m 1.837203,0 c 0.05262,-0.02124 0.138746,-0.02124 0.191375,0 0.05262,0.02124 0.0096,0.0386 -0.09569,0.0386 -0.105255,0 -0.148316,-0.01738 -0.09568,-0.0386 z"
       style="fill:#4f94ca" />
    <path
       inkscape:connector-curvature="0"
       id="path3262"
       d="m 16.811591,74.200993 c -0.09522,-0.121413 -0.09251,-0.124121 0.0289,-0.0289 0.127515,0.100002 0.168065,0.162863 0.105061,0.162863 -0.0159,0 -0.07618,-0.06029 -0.133963,-0.133961 z m -0.06678,-20.333771 c 0,-0.0159 0.06029,-0.07618 0.133963,-0.133962 0.121413,-0.09522 0.12412,-0.09251 0.0289,0.0289 -0.100003,0.127513 -0.162866,0.168064 -0.162866,0.10506 z"
       style="fill:#3684c2" />
    <path
       inkscape:connector-curvature="0"
       id="path3260"
       d="m 63.272932,69.766216 c 0.05526,-0.02211 0.121284,-0.01939 0.14672,0.006 0.02544,0.02544 -0.01977,0.04352 -0.10047,0.0402 -0.08918,-0.0037 -0.107315,-0.02182 -0.04624,-0.04625 z m 1.148252,0 c 0.05526,-0.02211 0.121283,-0.01939 0.14672,0.006 0.02544,0.02544 -0.01978,0.04352 -0.100471,0.0402 -0.08918,-0.0037 -0.107316,-0.02182 -0.04625,-0.04625 z M 53.321415,69.613117 c 0.05526,-0.02211 0.121285,-0.01939 0.146722,0.006 0.02544,0.02544 -0.01978,0.04352 -0.100471,0.0402 -0.08918,-0.0037 -0.107316,-0.02182 -0.04625,-0.04625 z m 12.415474,-2.426208 c 0,-0.0159 0.06029,-0.07618 0.133962,-0.133963 0.121414,-0.09522 0.124122,-0.09251 0.0289,0.0289 -0.100002,0.127513 -0.162865,0.168064 -0.162865,0.105061 z m -6.041418,-1.24055 c 0.0037,-0.08918 0.02182,-0.107316 0.04625,-0.04625 0.02211,0.05527 0.01939,0.121283 -0.006,0.146722 -0.02544,0.02544 -0.04352,-0.01978 -0.0402,-0.10047 z m 0,-1.0717 c 0.0037,-0.08918 0.02182,-0.107315 0.04625,-0.04625 0.02211,0.05525 0.01939,0.121283 -0.006,0.146721 -0.02544,0.02544 -0.04352,-0.01978 -0.0402,-0.100471 z m 27.175297,-2.296498 c 0.0037,-0.08918 0.02182,-0.107314 0.04625,-0.04624 0.02211,0.05526 0.01939,0.121283 -0.006,0.146721 -0.02544,0.02544 -0.04352,-0.01978 -0.0402,-0.100471 z"
       style="fill:#6f6f6f" />
    <path
       inkscape:connector-curvature="0"
       id="path3258"
       d="M 27.232174,79.260523 C 24.878665,79.034986 23.251229,78.5835 21.335175,77.624564 16.871899,75.390808 13.764746,71.020856 13.063413,65.991013 c -0.146053,-1.047472 -0.128457,-3.142878 0.03504,-4.171972 0.805063,-5.067445 3.813019,-9.221004 8.315219,-11.482139 1.429194,-0.717784 3.259579,-1.287417 4.823353,-1.501077 0.939238,-0.128327 3.050419,-0.127517 3.980609,0.0015 2.814599,0.390472 5.430993,1.530587 7.693287,3.352414 2.949086,2.374901 4.942458,5.947324 5.479809,9.820649 0.129671,0.934684 0.129671,3.045911 0,3.980596 -0.918731,6.622378 -5.879573,11.823329 -12.445871,13.048264 -1.174339,0.219073 -2.753414,0.313172 -3.712681,0.221247 z m 6.781926,-9.39512 c 0.641732,-0.316634 0.858433,-0.47545 1.410081,-1.033424 0.462234,-0.467534 0.721077,-0.804017 0.889931,-1.156869 0.13096,-0.273665 0.698349,-1.909919 1.260866,-3.636121 0.994554,-3.052004 1.022631,-3.156489 1.0182,-3.789221 -0.0074,-1.061736 -0.436302,-1.739121 -1.307423,-2.065048 -0.404911,-0.151497 -0.573352,-0.1549 -7.66577,-0.1549 l -7.251762,0 -0.487813,1.473586 c -0.268298,0.810473 -0.503826,1.516645 -0.523396,1.569273 -0.02828,0.07606 1.26283,0.09568 6.296186,0.09568 5.031121,0 6.325318,0.01966 6.300373,0.09569 -0.01727,0.05263 -0.46016,1.4132 -0.984205,3.023494 l -0.952812,2.927808 -6.328161,2.3e-4 -6.328163,2.29e-4 -0.476928,1.435311 c -0.26231,0.78942 -0.493023,1.479037 -0.512695,1.532477 -0.02878,0.07819 1.421165,0.09314 7.424731,0.07655 l 7.460498,-0.02063 0.758262,-0.37413 z m -8.037479,-5.711589 c 0.268207,-0.778896 0.488189,-1.425107 0.488851,-1.436026 6.89e-4,-0.01091 -1.712467,-0.01091 -3.80695,0 l -3.808149,0.01985 -0.472784,1.339622 c -0.260032,0.736795 -0.475428,1.383006 -0.478659,1.436027 -0.0047,0.07654 0.776771,0.09232 3.792084,0.07655 l 3.797956,-0.01985 0.487651,-1.416174 z"
       style="fill:#1b74bb" />
    <path
       inkscape:connector-curvature="0"
       id="path3256"
       d="m 62.942099,69.712196 c -1.331122,-0.254358 -2.438899,-1.183169 -2.902762,-2.433805 -0.65337,-1.761583 -0.265878,-4.197646 0.925956,-5.821244 0.638874,-0.870319 1.792397,-1.653603 2.857842,-1.94058 0.696986,-0.187732 2.101288,-0.189773 2.714261,-0.004 0.725771,0.220026 1.189555,0.493035 1.69169,0.995831 0.846588,0.847698 1.243213,2.056853 1.159512,3.534887 -0.159088,2.80929 -1.741175,4.979782 -4.067501,5.580276 -0.656871,0.169558 -1.743487,0.210018 -2.378998,0.08858 z m 2.209082,-2.113825 c 1.116473,-0.532035 1.88706,-2.080707 1.88706,-3.792487 0,-0.959025 -0.153291,-1.413099 -0.64904,-1.922568 -0.455833,-0.468448 -0.827412,-0.5963 -1.578536,-0.543144 -0.864875,0.06122 -1.709221,0.671536 -2.160187,1.561472 -0.400269,0.789892 -0.548582,1.448505 -0.549172,2.438694 -4.61e-4,0.831678 0.01843,0.959039 0.199871,1.345965 0.21512,0.458711 0.650308,0.881136 1.073152,1.04168 0.398008,0.151114 1.330487,0.0831 1.776852,-0.129612 z m -16.470742,1.902493 c 0.01926,-0.09895 0.495734,-2.39318 1.058831,-5.098263 l 1.023815,-4.918332 1.893203,0 c 2.035389,0 2.832209,0.07353 3.505457,0.323469 1.750003,0.649685 2.618311,2.103412 2.50446,4.192976 -0.154829,2.841633 -1.627828,4.742247 -4.220459,5.445665 -0.556918,0.151098 -0.847421,0.169245 -3.206364,0.200284 l -2.593961,0.03413 0.03502,-0.17993 z m 4.986057,-1.787113 c 0.620415,-0.161598 1.011976,-0.379434 1.483322,-0.825212 0.773206,-0.731264 1.171406,-1.766148 1.171406,-3.044379 0,-1.179369 -0.358476,-1.852995 -1.207008,-2.268142 -0.401495,-0.196431 -0.52438,-0.216463 -1.490757,-0.243002 -0.633814,-0.01741 -1.053193,9e-6 -1.053193,0.04373 0,0.03997 -0.292804,1.492296 -0.650675,3.227407 -0.357872,1.735111 -0.650677,3.170342 -0.650677,3.1894 0,0.09157 1.994498,0.02518 2.397582,-0.0798 z m 16.3572,1.890575 c 0,-0.03359 0.430722,-2.143503 0.957163,-4.688682 0.52644,-2.54518 0.994113,-4.809355 1.039272,-5.031502 l 0.08211,-0.403899 1.105129,0.02115 1.105131,0.02115 1.592386,3.329923 c 0.875812,1.831457 1.629306,3.41604 1.674432,3.521296 l 0.08205,0.191375 0.04036,-0.191375 c 0.02219,-0.105256 0.346865,-1.689839 0.7215,-3.521296 l 0.681157,-3.329923 1.056865,-0.02136 c 0.831998,-0.01681 1.049656,-5.37e-4 1.022973,0.07655 -0.01864,0.05385 -0.496364,2.345492 -1.061607,5.092539 l -1.02771,4.994632 -1.007479,2.29e-4 -1.007479,2.3e-4 -0.41595,-0.861186 c -0.940832,-1.947871 -2.948561,-6.156383 -3.021962,-6.334464 -0.07601,-0.184412 -0.08065,-0.180235 -0.127335,0.114824 -0.02665,0.16841 -0.357982,1.805542 -0.736293,3.638071 -0.378312,1.832528 -0.687839,3.356829 -0.687839,3.387333 0,0.0305 -0.465041,0.05546 -1.033427,0.05546 -0.568384,0 -1.033426,-0.02749 -1.033426,-0.06108 z m 10.330158,-0.340804 c 0.124766,-0.221039 1.413689,-2.503184 2.86427,-5.071433 l 2.637424,-4.669546 1.33016,-0.02084 1.330159,-0.02084 0.676035,4.843481 c 0.371819,2.663917 0.693766,4.955437 0.715445,5.09227 l 0.03942,0.248788 -1.118538,0 c -1.291065,0 -1.136341,0.125677 -1.272261,-1.033424 -0.04443,-0.378922 -0.100715,-0.818744 -0.125048,-0.977381 l -0.04426,-0.288432 -1.80943,0.0205 -1.809432,0.0205 -0.575801,1.127826 -0.5758,1.127826 -1.244594,0.0012 -1.244593,0.0012 0.226849,-0.401887 z m 6.859018,-3.904047 c -0.0891,-0.533588 -0.348147,-3.232765 -0.348147,-3.627487 l 0,-0.417132 -0.63803,1.247242 c -0.350915,0.685982 -0.853458,1.652 -1.116762,2.146704 l -0.478733,0.899461 1.311606,0 1.311606,0 -0.04155,-0.248788 z m 4.857262,4.274932 c 0,-0.01705 0.378922,-1.867948 0.84205,-4.113106 0.463128,-2.245155 0.842051,-4.108592 0.842051,-4.140968 0,-0.03238 -0.640961,-0.05886 -1.424368,-0.05886 -1.107848,0 -1.416291,-0.02127 -1.388014,-0.09569 0.01999,-0.05263 0.114289,-0.465998 0.20954,-0.9186 l 0.173196,-0.822911 3.932357,0 c 2.464922,0 3.932349,0.02746 3.932349,0.07358 0,0.06162 -0.0962,0.504189 -0.346081,1.591375 -0.0393,0.170895 -0.05049,0.172238 -1.439434,0.172238 l -1.399858,0 -0.824246,3.999734 c -0.453337,2.199853 -0.842687,4.077239 -0.865215,4.17197 -0.04013,0.16874 -0.06334,0.172239 -1.142649,0.172239 -0.605925,0 -1.101678,-0.01395 -1.101678,-0.031 z m 6.292635,-0.140328 c 0.01855,-0.09523 0.494435,-2.386395 1.057536,-5.091478 l 1.023815,-4.918332 2.86077,0 c 2.68827,0 2.85845,0.0081 2.82206,0.133962 -0.0461,0.159543 -0.35435,1.606638 -0.35435,1.663625 0,0.02179 -0.78667,0.03961 -1.74816,0.03961 l -1.74815,0 -0.21492,1.052561 c -0.1182,0.57891 -0.23085,1.095621 -0.25033,1.14825 -0.0276,0.07465 0.31987,0.09569 1.58033,0.09569 1.48854,0 1.61557,0.01055 1.61367,0.133963 -10e-4,0.07368 -0.0794,0.478437 -0.174,0.899461 l -0.17193,0.7655 -1.62492,0.02067 c -0.89372,0.01136 -1.62494,0.03181 -1.62494,0.04547 0,0.01364 -0.10338,0.535045 -0.22965,1.158668 -0.1263,0.623625 -0.22965,1.145711 -0.22965,1.160193 0,0.01448 0.82674,0.02633 1.83719,0.02633 1.41996,0 1.83669,0.02174 1.83492,0.09569 -0.001,0.05263 -0.0804,0.457385 -0.17595,0.899462 l -0.17366,0.803773 -2.97171,0.02004 -2.971693,0.02006 0.03372,-0.173145 z"
       style="fill:#4c4c4c" />
  </g>
</svg>
