<?xml version="1.0" encoding="UTF-8" standalone="no"?>
<!-- Created with Inkscape (http://www.inkscape.org/) -->

<svg
   xmlns:dc="http://purl.org/dc/elements/1.1/"
   xmlns:cc="http://creativecommons.org/ns#"
   xmlns:rdf="http://www.w3.org/1999/02/22-rdf-syntax-ns#"
   xmlns:svg="http://www.w3.org/2000/svg"
   xmlns="http://www.w3.org/2000/svg"
   version="1.1"
   width="128"
   height="128"
   id="svg2">
  <metadata
     id="metadata8">
    <rdf:RDF>
      <cc:Work
         rdf:about="">
        <dc:format>image/svg+xml</dc:format>
        <dc:type
           rdf:resource="http://purl.org/dc/dcmitype/StillImage" />
        <dc:title></dc:title>
      </cc:Work>
    </rdf:RDF>
  </metadata>
  <defs
     id="defs6">
    <filter
       color-interpolation-filters="sRGB"
       id="filter4344">
      <feGaussianBlur
         id="feGaussianBlur4346"
         stdDeviation="0.079437392" />
    </filter>
    <filter
       color-interpolation-filters="sRGB"
       id="filter4344-7-9-7">
      <feGaussianBlur
         id="feGaussianBlur4346-1-2-1"
         stdDeviation="0.079437392" />
    </filter>
    <filter
       color-interpolation-filters="sRGB"
       id="filter4344-7-9">
      <feGaussianBlur
         id="feGaussianBlur4346-1-2"
         stdDeviation="0.079437392" />
    </filter>
    <filter
       color-interpolation-filters="sRGB"
       id="filter4344-7-7">
      <feGaussianBlur
         id="feGaussianBlur4346-1-0"
         stdDeviation="0.079437392" />
    </filter>
    <filter
       color-interpolation-filters="sRGB"
       id="filter4344-7">
      <feGaussianBlur
         id="feGaussianBlur4346-1"
         stdDeviation="0.079437392" />
    </filter>
  </defs>
  <g
     transform="translate(0,-128)"
     id="layer1" />
  <g
     transform="translate(0,-128)"
     id="layer2">
    <g
       transform="matrix(0.61355383,0,0,0.6135658,-14.216896,113.82752)"
       id="g3070">
      <g
         transform="matrix(0.0439885,0,0,0.0439885,174.13222,87.311434)"
         id="g2998"
         style="display:inline">
        <path
           d="m -2015.5546,1476.7639 c 0,-0.425 16.8948,-52.516 37.5439,-115.7578 20.6491,-63.2419 42.0525,-128.8227 47.5631,-145.7352 l 10.0192,-30.75 612.3536,0 612.35374,0 7.5362,-22.75 c 17.475,-52.7535 186.6302,-568.20903 186.6302,-568.70605 0,-0.29917 -275.4,-0.54394 -612.00004,-0.54394 -336.6,0 -612,-0.27696 -612,-0.61548 0,-0.33851 19.7665,-61.20101 43.9254,-135.25 24.159,-74.04898 45.5577,-139.70054 47.5527,-145.89234 l 3.6272,-11.25781 691.69734,0.27545 c 667.0691,0.26565 692.0891,0.34117 702.6974,2.1211 33.3901,5.60238 58.3934,15.2915 84.6125,32.78849 40.1298,26.78014 67.313698,66.09813 79.837698,115.47499 11.6979,46.11938 10.2248,95.01095 -4.3643,144.8556 -6.4644,22.08613 -192.686698,588.86229 -196.809898,598.99999 -21.8491,53.7205 -56.9016,104.1096 -105.4011,151.5177 -50.5275,49.3905 -102.8782,83.8909 -164.3749,108.3274 -26.4052,10.4924 -50.6247,17.1142 -78.0461,21.3386 -10.8481,1.6712 -48.0409,1.7795 -703.20394,2.0482 -380.4625,0.1561 -691.7499,-0.064 -691.7499,-0.4889 z m -47.9507,-450.993 c 0.027,-0.4125 21.333,-62.39999 47.3464,-137.74999 l 47.297,-137 363.6536,-0.25136 c 200.0095,-0.13825 363.6536,0.0924 363.6536,0.51247 0,0.99871 -93.7448,273.01708 -94.5229,274.27598 -0.7106,1.1498 -727.5032,1.3626 -727.4277,0.2129 z"
           transform="matrix(0.96693983,0,0,0.96693983,-139.54543,130.49307)"
           id="path2987-0-5-6"
           style="fill:#ffffff;fill-opacity:1;stroke:none;filter:url(#filter4344-7-9-7)" />
        <path
           d="m -2015.5546,1476.7639 c 0,-0.425 16.8948,-52.516 37.5439,-115.7578 20.6491,-63.2419 42.0525,-128.8227 47.5631,-145.7352 l 10.0192,-30.75 612.3536,0 612.35374,0 7.5362,-22.75 c 17.475,-52.7535 186.6302,-568.20903 186.6302,-568.70605 0,-0.29917 -275.4,-0.54394 -612.00004,-0.54394 -336.6,0 -612,-0.27696 -612,-0.61548 0,-0.33851 19.7665,-61.20101 43.9254,-135.25 24.159,-74.04898 45.5577,-139.70054 47.5527,-145.89234 l 3.6272,-11.25781 691.69734,0.27545 c 667.0691,0.26565 692.0891,0.34117 702.6974,2.1211 33.3901,5.60238 58.3934,15.2915 84.6125,32.78849 40.1298,26.78014 67.313698,66.09813 79.837698,115.47499 11.6979,46.11938 10.2248,95.01095 -4.3643,144.8556 -6.4644,22.08613 -192.686698,588.86229 -196.809898,598.99999 -21.8491,53.7205 -56.9016,104.1096 -105.4011,151.5177 -50.5275,49.3905 -102.8782,83.8909 -164.3749,108.3274 -26.4052,10.4924 -50.6247,17.1142 -78.0461,21.3386 -10.8481,1.6712 -48.0409,1.7795 -703.20394,2.0482 -380.4625,0.1561 -691.7499,-0.064 -691.7499,-0.4889 z m -47.9507,-450.993 c 0.027,-0.4125 21.333,-62.39999 47.3464,-137.74999 l 47.297,-137 363.6536,-0.25136 c 200.0095,-0.13825 363.6536,0.0924 363.6536,0.51247 0,0.99871 -93.7448,273.01708 -94.5229,274.27598 -0.7106,1.1498 -727.5032,1.3626 -727.4277,0.2129 z"
           transform="matrix(0.96693983,0,0,0.96693983,40.752072,131.24213)"
           id="path2987-0-5"
           style="fill:#ffffff;fill-opacity:1;stroke:none;filter:url(#filter4344-7-9)" />
        <path
           d="m -2015.5546,1476.7639 c 0,-0.425 16.8948,-52.516 37.5439,-115.7578 20.6491,-63.2419 42.0525,-128.8227 47.5631,-145.7352 l 10.0192,-30.75 612.3536,0 612.35374,0 7.5362,-22.75 c 17.475,-52.7535 186.6302,-568.20903 186.6302,-568.70605 0,-0.29917 -275.4,-0.54394 -612.00004,-0.54394 -336.6,0 -612,-0.27696 -612,-0.61548 0,-0.33851 19.7665,-61.20101 43.9254,-135.25 24.159,-74.04898 45.5577,-139.70054 47.5527,-145.89234 l 3.6272,-11.25781 691.69734,0.27545 c 667.0691,0.26565 692.0891,0.34117 702.6974,2.1211 33.3901,5.60238 58.3934,15.2915 84.6125,32.78849 40.1298,26.78014 67.313698,66.09813 79.837698,115.47499 11.6979,46.11938 10.2248,95.01095 -4.3643,144.8556 -6.4644,22.08613 -192.686698,588.86229 -196.809898,598.99999 -21.8491,53.7205 -56.9016,104.1096 -105.4011,151.5177 -50.5275,49.3905 -102.8782,83.8909 -164.3749,108.3274 -26.4052,10.4924 -50.6247,17.1142 -78.0461,21.3386 -10.8481,1.6712 -48.0409,1.7795 -703.20394,2.0482 -380.4625,0.1561 -691.7499,-0.064 -691.7499,-0.4889 z m -47.9507,-450.993 c 0.027,-0.4125 21.333,-62.39999 47.3464,-137.74999 l 47.297,-137 363.6536,-0.25136 c 200.0095,-0.13825 363.6536,0.0924 363.6536,0.51247 0,0.99871 -93.7448,273.01708 -94.5229,274.27598 -0.7106,1.1498 -727.5032,1.3626 -727.4277,0.2129 z"
           transform="matrix(0.96693983,0,0,0.96693983,95.245748,-25.93938)"
           id="path2987-0-9"
           style="fill:#ffffff;fill-opacity:1;stroke:none;filter:url(#filter4344-7-7)" />
        <path
           d="m -2015.5546,1476.7639 c 0,-0.425 16.8948,-52.516 37.5439,-115.7578 20.6491,-63.2419 42.0525,-128.8227 47.5631,-145.7352 l 10.0192,-30.75 612.3536,0 612.35374,0 7.5362,-22.75 c 17.475,-52.7535 186.6302,-568.20903 186.6302,-568.70605 0,-0.29917 -275.4,-0.54394 -612.00004,-0.54394 -336.6,0 -612,-0.27696 -612,-0.61548 0,-0.33851 19.7665,-61.20101 43.9254,-135.25 24.159,-74.04898 45.5577,-139.70054 47.5527,-145.89234 l 3.6272,-11.25781 691.69734,0.27545 c 667.0691,0.26565 692.0891,0.34117 702.6974,2.1211 33.3901,5.60238 58.3934,15.2915 84.6125,32.78849 40.1298,26.78014 67.313698,66.09813 79.837698,115.47499 11.6979,46.11938 10.2248,95.01095 -4.3643,144.8556 -6.4644,22.08613 -192.686698,588.86229 -196.809898,598.99999 -21.8491,53.7205 -56.9016,104.1096 -105.4011,151.5177 -50.5275,49.3905 -102.8782,83.8909 -164.3749,108.3274 -26.4052,10.4924 -50.6247,17.1142 -78.0461,21.3386 -10.8481,1.6712 -48.0409,1.7795 -703.20394,2.0482 -380.4625,0.1561 -691.7499,-0.064 -691.7499,-0.4889 z m -47.9507,-450.993 c 0.027,-0.4125 21.333,-62.39999 47.3464,-137.74999 l 47.297,-137 363.6536,-0.25136 c 200.0095,-0.13825 363.6536,0.0924 363.6536,0.51247 0,0.99871 -93.7448,273.01708 -94.5229,274.27598 -0.7106,1.1498 -727.5032,1.3626 -727.4277,0.2129 z"
           transform="matrix(0.96693983,0,0,0.96693983,-89.461941,-26.313921)"
           id="path2987-0"
           style="fill:#ffffff;fill-opacity:1;stroke:none;filter:url(#filter4344-7)" />
      </g>
      <rect
         width="39.351994"
         height="33.343155"
         x="114.36099"
         y="111.68627"
         id="rect3034"
         style="fill:#ffffff;fill-opacity:1;stroke:none;display:inline" />
      <path
         d="m -527.40812,1120.038 c 0,-0.425 16.8948,-52.516 37.5439,-115.7578 20.6491,-63.24192 42.0525,-128.82272 47.5631,-145.73522 l 10.0192,-30.75 612.3536,0 612.35373,0 7.5362,-22.75 c 17.475,-52.7535 186.6302,-568.20906 186.6302,-568.70608 0,-0.29917 -275.4,-0.54394 -612,-0.54394 -336.600034,0 -612.00003,-0.27696 -612.00003,-0.61548 0,-0.33851 19.7665,-61.20101 43.9254,-135.250003 24.159,-74.04898 45.5577,-139.70054 47.5527,-145.89234 l 3.6272,-11.25781 691.69733,0.27545 c 667.06909,0.26565 692.08909,0.34117 702.69739,2.1211 33.3901,5.60238 58.3934,15.2915 84.6125,32.78849 40.1298,26.7801399 67.3137,66.09813 79.8377,115.47499 11.6979,46.119383 10.2248,95.010953 -4.3643,144.855603 -6.4644,22.08613 -192.6867,588.86232 -196.8099,599.00002 -21.8491,53.7205 -56.9016,104.1096 -105.4011,151.5177 -50.5275,49.39052 -102.8782,83.89092 -164.37489,108.32742 -26.4052,10.4924 -50.6247,17.1142 -78.0461,21.3386 -10.8481,1.6712 -48.0409,1.7795 -703.20393,2.0482 -380.4625,0.1561 -691.7499,-0.064 -691.7499,-0.4889 z m -47.9507,-450.99302 c 0.027,-0.4125 21.333,-62.40002 47.3464,-137.75002 l 47.297,-137 363.6536,-0.25136 c 200.009496,-0.13825 363.65363,0.0924 363.65363,0.51247 0,0.99871 -93.74483,273.01711 -94.52293,274.27601 -0.7106,1.1498 -727.5032,1.3626 -727.4277,0.2129 z"
         transform="matrix(0.03998955,0,0,0.03998955,111.34547,106.3249)"
         id="path2987"
         style="fill:#1c75bc;fill-opacity:1;stroke:none;filter:url(#filter4344)" />
    </g>
  </g>
</svg>
